<?xml version="1.0" encoding="utf-8"?>
<!-- Generator: Adobe Illustrator 24.1.1, SVG Export Plug-In . SVG Version: 6.00 Build 0)  -->
<svg version="1.1" id="Layer_1" xmlns="http://www.w3.org/2000/svg" xmlns:xlink="http://www.w3.org/1999/xlink" x="0px" y="0px"
	 viewBox="0 0 880 640" style="enable-background:new 0 0 880 640;" xml:space="preserve">
<style type="text/css">
	.st0{fill:#E1E1E1;}
	.st1{fill:#F5F5F5;}
	.st2{fill:none;stroke:#E1E1E1;stroke-width:5.000000e-02;stroke-miterlimit:10;}
	.st3{fill:#ECECEC;}
	.st4{fill:#1A2E35;}
	.st5{fill:#FF4F5B;}
	.st6{fill:#556F4A;}
	.st7{fill:#6C895D;}
	.st8{fill:#F3A43D;}
	.st9{fill:#FED150;}
	.st10{fill:#FFE984;}
	.st11{fill:#375A64;}
	.st12{opacity:0.6;}
	.st13{fill:#FFFFFF;}
	.st14{opacity:0.3;}
	.st15{fill:#FFBF9D;}
	.st16{fill:#FF9A6C;}
	.st17{fill:#455A64;}
	.st18{fill:#FAFAFA;}
</style>
<g>
	<g>
		<g>
			<g>
				<path class="st0" d="M219,386c1.5-0.9,3-1.6,4.7-2l1-4.6l7.8-0.1l1.1,4.6c1.6,0.4,3.2,1,4.7,1.9l3.9-2.6l5.6,5.4l-2.4,4
					c0.9,1.5,1.6,3,2,4.7l4.6,1l0.1,7.8l-4.6,1.1c-0.4,1.6-1,3.2-1.9,4.7l2.6,3.9l-5.4,5.6l-4-2.4c-1.5,0.9-3,1.6-4.7,2l-1,4.6
					l-7.8,0.1l-1.1-4.6c-1.6-0.4-3.2-1-4.7-1.9l-3.9,2.6l-5.6-5.4l2.4-4c-0.9-1.5-1.6-3-2-4.7l-4.6-1l-0.1-7.8l4.6-1.1
					c0.4-1.6,1-3.2,1.9-4.7l-2.6-3.9l5.4-5.6L219,386L219,386z M223.2,396.4c-3.2,3.3-3.1,8.6,0.2,11.8c3.3,3.2,8.6,3.1,11.8-0.2
					c3.2-3.3,3.1-8.6-0.2-11.8C231.7,393,226.4,393.1,223.2,396.4z"/>
			</g>
		</g>
		<g>
			<g>
				<g>
					<path class="st0" d="M223.2,396.4c0,0,0.4-0.6,1.6-1.4c1.1-0.7,3-1.5,5.5-1.3c1.2,0.1,2.5,0.5,3.7,1.3c1.2,0.8,2.3,1.9,3,3.4
						c0.4,0.7,0.6,1.5,0.8,2.3c0.2,0.8,0.2,1.7,0,2.6c-0.2,1.7-1,3.5-2.3,4.8c-1.3,1.3-3,2.2-4.7,2.5c-0.9,0.2-1.7,0.2-2.6,0
						c-0.8-0.1-1.6-0.3-2.4-0.7c-1.5-0.6-2.7-1.7-3.5-2.9c-0.8-1.2-1.3-2.5-1.4-3.7c-0.3-2.4,0.4-4.4,1.1-5.5
						C222.6,396.9,223.2,396.4,223.2,396.4c0,0-0.5,0.5-1.1,1.7c-0.6,1.1-1.3,3-0.9,5.4c0.2,1.1,0.6,2.4,1.4,3.5
						c0.8,1.1,1.9,2.1,3.3,2.7c0.7,0.3,1.5,0.5,2.3,0.6c0.8,0.1,1.6,0.1,2.4-0.1c1.6-0.3,3.2-1.1,4.5-2.4c1.2-1.3,2-2.9,2.2-4.6
						c0.1-0.8,0.1-1.6,0-2.4c-0.1-0.8-0.4-1.5-0.7-2.2c-0.6-1.4-1.7-2.5-2.8-3.2c-1.1-0.8-2.4-1.2-3.5-1.3c-2.3-0.3-4.2,0.4-5.3,1.1
						C223.7,395.9,223.2,396.4,223.2,396.4z"/>
				</g>
			</g>
		</g>
		<g>
			<g>
				<g>
					<path class="st0" d="M219,386c0,0-0.1,0-0.3-0.1c-0.2-0.1-0.4-0.3-0.8-0.4c-0.7-0.4-1.7-1-3-1.8l0.1,0
						c-1.4,1.4-3.2,3.3-5.4,5.6l0-0.2c0.8,1.2,1.7,2.5,2.6,3.9l0,0.1l0,0.1c-0.8,1.4-1.4,3-1.8,4.7l0,0.1l-0.1,0
						c-1.4,0.4-3,0.7-4.6,1.1l0.1-0.2c0,2.5,0.1,5.1,0.2,7.8l-0.2-0.2c1.4,0.3,3,0.6,4.6,1l0.1,0l0,0.1c0.4,1.5,1.1,3.1,2,4.6
						l0.1,0.1l-0.1,0.1c-0.8,1.2-1.6,2.6-2.4,4l0-0.3c1.8,1.7,3.7,3.5,5.6,5.4l-0.3,0c1.2-0.8,2.6-1.7,3.9-2.6l0.1-0.1l0.1,0.1
						c1.4,0.8,3,1.4,4.7,1.8l0.1,0l0,0.1c0.4,1.4,0.7,3,1.1,4.6l-0.2-0.2c2.5,0,5.1-0.1,7.8-0.1l-0.2,0.2c0.3-1.5,0.6-3,1-4.6l0-0.1
						l0.1,0c1.5-0.4,3.1-1.1,4.6-2l0,0l0.1-0.1l0.1,0.1c1.4,0.8,2.7,1.6,4,2.4l-0.3,0c1.8-1.9,3.6-3.8,5.4-5.6l0,0.3
						c-0.9-1.3-1.7-2.6-2.6-3.9l-0.1-0.1l0.1-0.1c0.8-1.5,1.4-3.1,1.8-4.7l0-0.1l0.1,0c1.5-0.4,3.1-0.8,4.6-1.1L252,406
						c0-2.7-0.1-5.3-0.1-7.8l0.2,0.2c-1.6-0.3-3.1-0.6-4.6-1l-0.1,0l0-0.1c-0.5-1.7-1.1-3.2-2-4.6l-0.1-0.1l0.1-0.1
						c0.8-1.4,1.7-2.7,2.4-4l0,0.2c-2-1.9-3.8-3.7-5.6-5.4l0.2,0c-1.4,0.9-2.7,1.8-3.9,2.6l-0.1,0.1l-0.1-0.1
						c-1.6-0.9-3.1-1.5-4.7-1.9l-0.1,0l0-0.1c-0.4-1.7-0.8-3.2-1.1-4.6l0.1,0.1c-3,0-5.6,0.1-7.8,0.1l0.1-0.1
						c-0.4,1.8-0.7,3.4-1,4.6l0,0l0,0c-1.7,0.5-2.8,1-3.6,1.4c-0.4,0.2-0.6,0.3-0.8,0.4C219.1,386,219,386,219,386
						c0,0,0.1-0.1,0.3-0.2c0.2-0.1,0.4-0.3,0.8-0.5c0.7-0.4,1.9-1,3.6-1.4l-0.1,0.1c0.3-1.3,0.6-2.8,0.9-4.6l0-0.1l0.1,0
						c2.2,0,4.8-0.1,7.8-0.2l0.1,0l0,0.1c0.4,1.4,0.7,2.9,1.1,4.6l-0.1-0.1c1.6,0.4,3.2,1,4.8,1.9l-0.2,0c1.3-0.8,2.6-1.7,3.9-2.6
						l0.1-0.1l0.1,0.1c1.8,1.7,3.6,3.5,5.6,5.4l0.1,0.1l-0.1,0.1c-0.8,1.3-1.6,2.6-2.4,4l0-0.2c0.9,1.4,1.6,3,2.1,4.7l-0.2-0.2
						c1.5,0.3,3,0.6,4.6,1l0.2,0l0,0.2c0,2.5,0.1,5.1,0.1,7.8l0,0.2l-0.2,0c-1.5,0.4-3,0.7-4.6,1.1l0.2-0.2c-0.4,1.7-1,3.3-1.9,4.8
						l0-0.2c0.9,1.3,1.7,2.6,2.6,3.9l0.1,0.2l-0.1,0.1c-1.8,1.8-3.6,3.7-5.4,5.6l-0.1,0.1l-0.2-0.1c-1.3-0.8-2.7-1.6-4-2.4l0.2,0
						l0,0c-1.5,0.9-3.1,1.6-4.7,2l0.2-0.2c-0.3,1.6-0.7,3.2-1,4.6l0,0.2l-0.2,0c-2.7,0-5.3,0.1-7.8,0.1l-0.2,0l0-0.2
						c-0.4-1.6-0.8-3.1-1.1-4.6l0.2,0.2c-1.7-0.4-3.4-1.1-4.8-1.9l0.2,0c-1.4,0.9-2.7,1.8-3.9,2.6l-0.1,0.1l-0.1-0.1
						c-1.9-1.9-3.8-3.7-5.6-5.4l-0.1-0.1l0.1-0.1c0.9-1.4,1.7-2.8,2.4-4l0,0.2c-0.9-1.5-1.6-3.2-2-4.7l0.2,0.1
						c-1.6-0.3-3.2-0.7-4.6-1l-0.1,0l0-0.2c0-2.7-0.1-5.3-0.1-7.8l0-0.1l0.1,0c1.6-0.4,3.2-0.8,4.6-1.1l-0.1,0.1
						c0.4-1.8,1.1-3.4,1.9-4.8l0,0.1c-0.9-1.4-1.8-2.8-2.6-4l-0.1-0.1l0.1-0.1c2.2-2.3,4.1-4.2,5.4-5.6l0,0l0.1,0
						c1.3,0.8,2.3,1.4,3,1.8c0.3,0.2,0.6,0.4,0.8,0.5C218.9,385.9,219,386,219,386z"/>
				</g>
			</g>
		</g>
	</g>
	<g>
		<g>
			<g>
				<path class="st1" d="M172.6,378.9c0.9-0.5,1.8-0.9,2.8-1.2l0.6-2.8l4.7-0.1l0.7,2.7c1,0.2,1.9,0.6,2.8,1.1l2.4-1.5l3.4,3.2
					l-1.5,2.4c0.5,0.9,0.9,1.8,1.2,2.8l2.8,0.6l0.1,4.7l-2.7,0.7c-0.2,1-0.6,1.9-1.1,2.8l1.5,2.4l-3.2,3.4l-2.4-1.5
					c-0.9,0.5-1.8,0.9-2.8,1.2l-0.6,2.8l-4.7,0.1l-0.7-2.7c-1-0.2-1.9-0.6-2.8-1.1l-2.4,1.5l-3.4-3.2l1.5-2.4
					c-0.5-0.9-0.9-1.8-1.2-2.8l-2.8-0.6l-0.1-4.7l2.7-0.7c0.2-1,0.6-1.9,1.1-2.8l-1.5-2.4l3.2-3.4L172.6,378.9L172.6,378.9z
					 M175.1,385.2c-1.9,2-1.9,5.2,0.1,7.1c2,1.9,5.2,1.9,7.1-0.1c1.9-2,1.9-5.2-0.1-7.1C180.2,383.1,177,383.2,175.1,385.2z"/>
			</g>
		</g>
		<g>
			<g>
				<g>
					<path class="st1" d="M175.1,385.2c0,0,0.3-0.4,0.9-0.8c0.7-0.4,1.8-0.9,3.3-0.8c0.7,0.1,1.5,0.3,2.2,0.8c0.7,0.5,1.4,1.1,1.8,2
						c0.2,0.4,0.4,0.9,0.5,1.4c0.1,0.5,0.1,1,0,1.5c-0.1,1-0.6,2.1-1.4,2.9c-0.8,0.8-1.8,1.3-2.8,1.5c-0.5,0.1-1,0.1-1.5,0
						c-0.5-0.1-1-0.2-1.4-0.4c-0.9-0.4-1.6-1-2.1-1.7c-0.5-0.7-0.8-1.5-0.9-2.2c-0.2-1.5,0.2-2.6,0.7-3.3
						C174.7,385.4,175.1,385.2,175.1,385.2c0,0-0.3,0.3-0.7,1c-0.4,0.7-0.8,1.8-0.6,3.2c0.1,0.7,0.4,1.4,0.9,2.1
						c0.5,0.7,1.2,1.3,2,1.6c0.4,0.2,0.9,0.3,1.3,0.4c0.5,0.1,1,0.1,1.5,0c1-0.2,1.9-0.7,2.7-1.4c0.7-0.8,1.2-1.7,1.3-2.7
						c0.1-0.5,0.1-1,0-1.5c-0.1-0.5-0.2-0.9-0.4-1.3c-0.4-0.8-1-1.5-1.7-1.9c-0.7-0.5-1.4-0.7-2.1-0.8c-1.4-0.2-2.5,0.3-3.2,0.7
						C175.4,384.9,175.1,385.2,175.1,385.2z"/>
				</g>
			</g>
		</g>
		<g>
			<g>
				<g>
					<path class="st1" d="M172.6,378.9c0,0-0.1,0-0.2-0.1c-0.1-0.1-0.3-0.2-0.5-0.3c-0.4-0.2-1-0.6-1.8-1.1l0.1,0
						c-0.8,0.9-1.9,2-3.2,3.4l0-0.1c0.5,0.7,1,1.5,1.6,2.4l0,0l0,0c-0.5,0.8-0.8,1.8-1.1,2.8l0,0.1l-0.1,0c-0.9,0.2-1.8,0.4-2.7,0.7
						l0.1-0.1c0,1.5,0.1,3,0.1,4.7l-0.1-0.1c0.9,0.2,1.8,0.4,2.8,0.6l0.1,0l0,0.1c0.3,0.9,0.7,1.9,1.2,2.8l0,0.1l0,0.1
						c-0.5,0.7-1,1.6-1.5,2.4l0-0.2c1.1,1,2.2,2.1,3.4,3.2l-0.2,0c0.7-0.5,1.5-1,2.4-1.5l0.1,0l0.1,0c0.8,0.5,1.8,0.9,2.8,1.1l0.1,0
						l0,0.1c0.2,0.9,0.4,1.8,0.7,2.7l-0.1-0.1c1.5,0,3.1-0.1,4.7-0.1l-0.1,0.1c0.2-0.9,0.4-1.8,0.6-2.8l0-0.1l0.1,0
						c0.9-0.3,1.9-0.7,2.8-1.2l0,0l0.1,0l0.1,0c0.8,0.5,1.6,1,2.4,1.5l-0.2,0c1.1-1.1,2.2-2.3,3.2-3.4l0,0.2c-0.5-0.8-1-1.6-1.5-2.4
						l0-0.1l0-0.1c0.5-0.9,0.9-1.8,1.1-2.8l0-0.1l0.1,0c0.9-0.2,1.8-0.4,2.7-0.7l-0.1,0.1c0-1.6-0.1-3.1-0.1-4.7l0.1,0.1
						c-0.9-0.2-1.9-0.4-2.8-0.6l-0.1,0l0-0.1c-0.3-1-0.7-1.9-1.2-2.8l0-0.1l0-0.1c0.5-0.8,1-1.6,1.5-2.4l0,0.1
						c-1.2-1.1-2.3-2.2-3.4-3.2l0.1,0c-0.8,0.5-1.6,1-2.4,1.5l-0.1,0l-0.1,0c-0.9-0.5-1.9-0.9-2.8-1.1l-0.1,0l0-0.1
						c-0.2-1-0.5-1.9-0.7-2.7l0.1,0.1c-1.8,0-3.3,0-4.7,0.1l0.1-0.1c-0.2,1.1-0.4,2-0.6,2.8l0,0l0,0c-1,0.3-1.7,0.6-2.1,0.8
						c-0.2,0.1-0.4,0.2-0.5,0.3C172.7,378.9,172.6,378.9,172.6,378.9c0,0,0.1,0,0.2-0.1c0.1-0.1,0.3-0.2,0.5-0.3
						c0.4-0.2,1.1-0.6,2.1-0.9l0,0c0.2-0.8,0.3-1.7,0.6-2.8l0-0.1l0.1,0c1.3,0,2.9-0.1,4.7-0.1l0.1,0l0,0.1c0.2,0.8,0.4,1.7,0.7,2.7
						l-0.1-0.1c0.9,0.2,1.9,0.6,2.9,1.1l-0.1,0c0.7-0.5,1.5-1,2.4-1.6l0.1,0l0.1,0.1c1.1,1,2.2,2.1,3.4,3.2l0.1,0.1l0,0.1
						c-0.5,0.8-1,1.6-1.5,2.4l0-0.1c0.5,0.9,0.9,1.8,1.2,2.8l-0.1-0.1c0.9,0.2,1.8,0.4,2.8,0.6l0.1,0l0,0.1c0,1.5,0.1,3.1,0.1,4.7
						l0,0.1l-0.1,0c-0.9,0.2-1.8,0.4-2.7,0.7l0.1-0.1c-0.2,1-0.6,2-1.1,2.9l0-0.1c0.5,0.8,1,1.6,1.5,2.4l0.1,0.1l-0.1,0.1
						c-1.1,1.1-2.1,2.2-3.2,3.4l-0.1,0.1l-0.1-0.1c-0.8-0.5-1.6-1-2.4-1.5l0.1,0l0,0c-0.9,0.5-1.9,1-2.8,1.2l0.1-0.1
						c-0.2,0.9-0.4,1.9-0.6,2.8l0,0.1l-0.1,0c-1.6,0-3.2,0.1-4.7,0.1l-0.1,0l0-0.1c-0.2-0.9-0.5-1.9-0.7-2.7l0.1,0.1
						c-1-0.3-2-0.7-2.9-1.1l0.1,0c-0.8,0.5-1.6,1.1-2.4,1.5l-0.1,0.1l-0.1-0.1c-1.2-1.1-2.3-2.2-3.4-3.2l-0.1-0.1l0.1-0.1
						c0.5-0.8,1-1.7,1.5-2.4l0,0.1c-0.6-0.9-1-1.9-1.2-2.8l0.1,0.1c-1-0.2-1.9-0.4-2.8-0.6l-0.1,0l0-0.1c0-1.6,0-3.2-0.1-4.7l0-0.1
						l0.1,0c1-0.2,1.9-0.5,2.7-0.7l-0.1,0.1c0.3-1.1,0.7-2,1.1-2.9l0,0.1c-0.6-0.9-1.1-1.6-1.5-2.4l0,0l0,0c1.3-1.4,2.4-2.5,3.3-3.3
						l0,0l0,0c0.8,0.5,1.4,0.8,1.8,1.1c0.2,0.1,0.3,0.2,0.5,0.3C172.6,378.9,172.6,378.9,172.6,378.9z"/>
				</g>
			</g>
		</g>
	</g>
	<g>
		<g>
			<g>
				<path class="st2" d="M194.4,451.6c2.8-1.7,5.8-3,8.8-3.8l1.8-8.8l14.8-0.3l2.1,8.7c3.1,0.8,6.1,1.9,9,3.5l7.5-4.9l10.6,10.3
					l-4.6,7.6c1.7,2.8,3,5.8,3.8,8.8l8.8,1.8l0.3,14.8l-8.7,2.1c-0.8,3.1-1.9,6.1-3.5,9l4.9,7.5l-10.3,10.6l-7.6-4.6
					c-2.8,1.7-5.8,3-8.8,3.8l-1.8,8.8l-14.8,0.3l-2.1-8.7c-3.1-0.8-6.1-1.9-9-3.5l-7.5,4.9l-10.6-10.3l4.6-7.6
					c-1.7-2.8-3-5.8-3.8-8.8l-8.8-1.8l-0.3-14.8l8.7-2.1c0.8-3.1,1.9-6.1,3.5-9l-4.9-7.5l10.3-10.6L194.4,451.6L194.4,451.6z
					 M202.3,471.3c-6.1,6.3-5.9,16.4,0.4,22.4c6.3,6.1,16.4,5.9,22.4-0.4c6.1-6.3,5.9-16.4-0.4-22.4
					C218.4,464.8,208.4,465,202.3,471.3z"/>
			</g>
		</g>
		<g>
			<g>
				<g>
					<path class="st3" d="M202.3,471.3c0,0,0.8-1.2,3-2.6c2.1-1.4,5.7-2.9,10.4-2.4c2.3,0.3,4.8,1,7,2.5c2.2,1.5,4.4,3.6,5.7,6.4
						c0.7,1.4,1.2,2.9,1.4,4.5c0.3,1.6,0.3,3.2,0.1,4.9c-0.4,3.3-2,6.6-4.4,9.1c-2.5,2.5-5.7,4.2-9,4.7c-1.6,0.3-3.3,0.3-4.9,0.1
						c-1.6-0.2-3.1-0.6-4.5-1.3c-2.8-1.2-5-3.3-6.6-5.5c-1.6-2.2-2.4-4.7-2.7-6.9c-0.6-4.6,0.8-8.3,2.1-10.4
						C201.2,472.1,202.3,471.3,202.3,471.3c0.1,0.1-1,1-2.2,3.2c-1.2,2.1-2.5,5.8-1.8,10.2c0.4,2.2,1.2,4.5,2.7,6.6
						c1.5,2.1,3.7,4,6.3,5.1c1.3,0.6,2.8,1,4.3,1.2c1.5,0.2,3.1,0.2,4.6-0.1c3.1-0.5,6.1-2.1,8.5-4.5c2.3-2.4,3.8-5.5,4.2-8.6
						c0.2-1.6,0.2-3.1-0.1-4.6c-0.2-1.5-0.7-2.9-1.3-4.2c-1.2-2.6-3.2-4.7-5.4-6.1c-2.1-1.5-4.5-2.2-6.7-2.5
						c-4.4-0.6-8,0.8-10.1,2.1C203.3,470.3,202.4,471.4,202.3,471.3z"/>
				</g>
			</g>
		</g>
		<g>
			<g>
				<g>
					<path class="st3" d="M194.4,451.6c0,0-0.2-0.1-0.5-0.3c-0.4-0.2-0.8-0.5-1.5-0.8c-1.3-0.8-3.3-1.9-5.8-3.4l0.2,0
						c-2.6,2.7-6.1,6.3-10.2,10.7l0-0.3c1.5,2.3,3.2,4.8,4.9,7.5l0.1,0.1l-0.1,0.1c-1.5,2.6-2.7,5.6-3.5,8.9l0,0.2l-0.2,0
						c-2.7,0.7-5.6,1.4-8.7,2.2l0.2-0.3c0.1,4.7,0.2,9.6,0.3,14.8l-0.3-0.3c2.7,0.6,5.7,1.2,8.8,1.8l0.2,0l0.1,0.2
						c0.8,2.9,2.1,5.9,3.8,8.7l0.1,0.2l-0.1,0.2c-1.4,2.4-3,5-4.6,7.6l-0.1-0.5c3.3,3.2,7,6.7,10.7,10.3l-0.5,0
						c2.3-1.5,4.9-3.2,7.5-4.9l0.2-0.1l0.2,0.1c2.6,1.5,5.7,2.7,8.9,3.5l0.3,0.1l0.1,0.3c0.7,2.7,1.4,5.7,2.1,8.7l-0.4-0.3
						c4.7-0.1,9.7-0.2,14.8-0.3l-0.4,0.4c0.6-2.8,1.2-5.7,1.8-8.8l0.1-0.3l0.3-0.1c2.9-0.8,5.9-2.1,8.7-3.8l0,0l0.2-0.1l0.2,0.1
						c2.6,1.6,5.1,3.1,7.6,4.6l-0.6,0.1c3.5-3.6,6.9-7.1,10.3-10.6l-0.1,0.6c-1.6-2.5-3.3-5-4.9-7.5l-0.1-0.2l0.1-0.2
						c1.6-2.8,2.7-5.8,3.5-8.9l0.1-0.3l0.3-0.1c2.9-0.7,5.8-1.4,8.7-2.1l-0.3,0.4c-0.1-5-0.2-10-0.2-14.8l0.3,0.4
						c-3-0.6-5.9-1.2-8.8-1.8l-0.2-0.1l-0.1-0.2c-0.9-3.1-2.2-6.1-3.8-8.8l-0.1-0.2l0.1-0.2c1.6-2.6,3.1-5.2,4.6-7.6l0.1,0.5
						c-3.7-3.6-7.3-7-10.6-10.3l0.4,0c-2.6,1.7-5.1,3.3-7.5,4.9l-0.2,0.1l-0.2-0.1c-3-1.7-6-2.8-8.9-3.5l-0.2,0l0-0.2
						c-0.8-3.2-1.5-6-2.1-8.7l0.3,0.2c-5.7,0.1-10.6,0.1-14.8,0.2l0.2-0.2c-0.8,3.5-1.4,6.4-1.9,8.7l0,0.1l-0.1,0
						c-3.1,0.9-5.3,1.9-6.8,2.6c-0.7,0.4-1.2,0.6-1.6,0.8C194.6,451.5,194.4,451.6,194.4,451.6c0,0,0.2-0.1,0.5-0.3
						c0.3-0.2,0.9-0.5,1.6-0.9c1.4-0.8,3.6-1.8,6.8-2.7l-0.1,0.1c0.5-2.4,1.1-5.3,1.8-8.8l0-0.2l0.2,0c4.2-0.1,9.1-0.2,14.8-0.3
						l0.2,0l0.1,0.2c0.7,2.7,1.4,5.5,2.2,8.7l-0.2-0.2c3,0.7,6,1.9,9.1,3.5l-0.3,0c2.4-1.6,4.8-3.2,7.5-4.9l0.2-0.2l0.2,0.2
						c3.4,3.2,6.9,6.6,10.7,10.3l0.2,0.2l-0.2,0.3c-1.5,2.5-3,5-4.6,7.6l0-0.4c1.7,2.7,3,5.7,3.9,8.9l-0.3-0.3
						c2.9,0.6,5.8,1.2,8.8,1.8l0.3,0.1l0,0.3c0.1,4.8,0.2,9.7,0.3,14.8l0,0.3l-0.3,0.1c-2.9,0.7-5.7,1.4-8.7,2.1l0.3-0.3
						c-0.8,3.1-2,6.2-3.6,9.1l0-0.5c1.6,2.5,3.3,5,4.9,7.5l0.2,0.3l-0.2,0.3c-3.4,3.5-6.8,7-10.3,10.6l-0.3,0.3l-0.3-0.2
						c-2.5-1.5-5.1-3.1-7.6-4.6l0.5,0l0,0c-2.9,1.7-6,3-8.9,3.9l0.3-0.3c-0.6,3-1.2,6-1.8,8.8l-0.1,0.4l-0.4,0
						c-5.1,0.1-10.1,0.2-14.8,0.3l-0.4,0l-0.1-0.3c-0.7-3-1.5-6-2.1-8.7l0.3,0.3c-3.3-0.8-6.4-2.1-9.1-3.6l0.4,0
						c-2.6,1.7-5.2,3.4-7.5,4.9l-0.3,0.2l-0.2-0.2c-3.7-3.6-7.3-7.1-10.6-10.3l-0.2-0.2l0.2-0.3c1.6-2.7,3.2-5.3,4.6-7.6l0,0.4
						c-1.8-2.9-3.1-6-3.9-8.9l0.3,0.3c-3.1-0.6-6-1.3-8.7-1.8l-0.3-0.1l0-0.3c-0.1-5.2-0.2-10.1-0.2-14.8l0-0.3l0.3-0.1
						c3-0.7,6-1.4,8.7-2.1l-0.2,0.2c0.8-3.3,2.1-6.4,3.6-9l0,0.3c-1.8-2.7-3.4-5.2-4.9-7.5l-0.1-0.2l0.1-0.1
						c4.2-4.3,7.7-7.9,10.3-10.6l0.1-0.1l0.1,0.1c2.4,1.5,4.3,2.7,5.6,3.5c0.6,0.4,1.1,0.7,1.4,0.9
						C194.3,451.4,194.4,451.6,194.4,451.6z"/>
				</g>
			</g>
		</g>
	</g>
</g>
<g>
	<path class="st4" d="M842.9,594c0,0.2-182.7,0.4-408.1,0.4S26.7,594.2,26.7,594s182.7-0.4,408.1-0.4
		C660.2,593.7,842.9,593.8,842.9,594z"/>
</g>
<g>
	<g>
		<g>
			<path class="st5" d="M93.5,574.7c-0.7-2.8,1.1-5.5,3.2-7.5c2-2,4.5-3.8,5.5-6.4c1.7-4.3-0.5-9.8,2.4-13.4c1.7-2.1,4.8-2.8,6.3-5
				c0.8-1.2,1.1-2.6,1.4-4c1.6-7.1,5.2-13.6,10.2-18.9c0.3,6.3-1.1,12.7-4.1,18.2c-1.2,2.2-2.6,4.4-3.1,6.9
				c-0.7,4.1,1.6,8.3,0.6,12.2c-1.2,4.6-6.3,7.6-6.6,12.3c-0.2,4,3.2,7.5,2.9,11.4c-0.1,1.7-0.9,3.3-1.8,4.7
				c-3.1,5.1-7.6,8.6-14.5,8.4l-8.4,0.2L93.5,574.7z"/>
		</g>
	</g>
</g>
<g>
	<g>
		<g>
			<path class="st6" d="M93.5,574.7c-0.7-2.8,1.1-5.5,3.2-7.5c2-2,4.5-3.8,5.5-6.4c1.7-4.3-0.5-9.8,2.4-13.4c1.7-2.1,4.8-2.8,6.3-5
				c0.8-1.2,1.1-2.6,1.4-4c1.6-7.1,5.2-13.6,10.2-18.9c0.3,6.3-1.1,12.7-4.1,18.2c-1.2,2.2-2.6,4.4-3.1,6.9
				c-0.7,4.1,1.6,8.3,0.6,12.2c-1.2,4.6-6.3,7.6-6.6,12.3c-0.2,4,3.2,7.5,2.9,11.4c-0.1,1.7-0.9,3.3-1.8,4.7
				c-3.1,5.1-7.6,8.6-14.5,8.4l-8.4,0.2L93.5,574.7z"/>
		</g>
	</g>
</g>
<g>
	<g>
		<g>
			<g>
				<g>
					<path class="st4" d="M86,594.3c0,0-0.8,0.2-2.3-0.1c-0.7-0.1-1.7-0.3-2.7-0.7s-2.2-0.9-3.3-1.9c-0.5-0.5-1.1-1.1-1.4-1.8
						c-0.3-0.8-0.3-1.6-0.4-2.5c0-0.9,0-1.8-0.2-2.7c-0.1-0.9-0.5-1.8-1-2.7c-1-1.7-2.6-3.4-3.1-5.7c-0.6-2.3-0.1-4.8,0.3-7.3
						s0.8-5.2-0.2-7.9c-0.9-2.6-2.7-5-3.6-8s-0.5-6.2-0.6-9.4c-0.1-1.6-0.4-3.2-1.1-4.7s-1.6-2.9-2.3-4.5c-1.5-3.2-1.7-6.7-2.1-10.2
						c-0.2-1.8-0.4-3.6-0.6-5.4c-0.2-1.8-0.3-3.6-0.9-5.4c-0.5-1.8-1.2-3.5-2-5.2c-0.4-0.9-0.7-1.7-1-2.7c-0.2-1-0.2-1.9-0.3-2.9
						c-0.1-1.9,0-3.9,0.3-5.8c0.2-1.9,0.6-3.8,0.8-5.8c0-0.1,0-0.2,0-0.3v-0.4l0.3,0.2c1.8,0.9,3.3,2.3,4.5,3.8
						c1.2,1.6,2.1,3.3,2.7,5.1c1.4,3.6,1.9,7.4,2.5,11c0.7,3.6,1.6,7.1,3.4,10.1c0.9,1.5,2,2.9,3,4.3c1,1.4,1.8,3,2.1,4.8
						c0.5,3.5-1.5,6.6-1.1,9.8c0.1,1.6,0.7,3,1.5,4.4c0.8,1.3,1.6,2.6,2.5,3.8c0.8,1.3,1.6,2.5,2.2,3.9s0.9,2.8,1,4.2
						c0.2,2.8-0.2,5.5,0,8s1,4.8,2,6.9c1,2.1,2.1,3.9,3,5.7c0.5,0.9,0.9,1.8,1.3,2.7s0.6,1.8,0.7,2.7c0.3,1.7,0.2,3.4,0,4.8
						c-0.4,2.9-1.5,4.9-2.4,6.1c-0.2,0.3-0.5,0.5-0.7,0.7s-0.4,0.4-0.6,0.5C86.2,594.2,86,594.3,86,594.3s0.7-0.4,1.6-1.6
						c0.9-1.2,2-3.2,2.3-6c0.2-1.4,0.2-3-0.1-4.7c-0.2-0.8-0.4-1.7-0.7-2.6c-0.4-0.9-0.8-1.7-1.3-2.6c-0.9-1.8-2.1-3.7-3.1-5.7
						c-1-2.1-1.9-4.4-2.1-7s0.2-5.3,0-8c-0.1-1.4-0.4-2.8-1-4.1s-1.4-2.6-2.2-3.8c-0.8-1.2-1.7-2.5-2.5-3.9s-1.4-2.9-1.6-4.5
						c-0.4-3.3,1.6-6.5,1.1-9.8c-0.2-1.6-1-3.2-2-4.6c-0.9-1.4-2.1-2.8-3-4.3c-1.9-3.1-2.8-6.7-3.5-10.3c-0.7-3.6-1.2-7.4-2.5-10.9
						c-0.7-1.8-1.5-3.5-2.7-5c-1.1-1.5-2.6-2.8-4.3-3.7l0.4-0.2c0,0.1,0,0.2,0,0.3c-0.2,2-0.6,3.9-0.8,5.8c-0.2,1.9-0.3,3.8-0.3,5.7
						c0,0.9,0.1,1.9,0.2,2.8c0.2,0.9,0.6,1.8,0.9,2.6c0.7,1.7,1.5,3.5,2,5.2c0.6,1.8,0.7,3.7,0.9,5.4c0.2,1.8,0.4,3.6,0.6,5.4
						c0.4,3.5,0.6,7,2,10.1c0.7,1.5,1.6,2.9,2.3,4.5c0.7,1.5,1,3.2,1.1,4.8c0.2,3.2-0.3,6.4,0.6,9.3c0.9,2.9,2.7,5.2,3.6,7.9
						c1,2.7,0.5,5.6,0.1,8.1s-0.8,5-0.3,7.2c0.5,2.3,2.1,3.9,3.1,5.7c0.5,0.9,0.9,1.8,1,2.8s0.1,1.9,0.2,2.7c0,0.9,0.1,1.7,0.3,2.4
						c0.3,0.7,0.8,1.3,1.3,1.8c1.1,0.9,2.2,1.5,3.3,1.9c1,0.4,1.9,0.6,2.7,0.7c0.7,0.1,1.3,0.2,1.7,0.2
						C85.8,594.3,86,594.3,86,594.3z"/>
				</g>
			</g>
		</g>
	</g>
	<g>
		<g>
			<g>
				<g>
					<path class="st4" d="M60.1,495.5c0,0,0,0.1,0.1,0.3c0,0.2,0.1,0.4,0.2,0.8c0.2,0.7,0.4,1.7,0.7,2.9c0.3,1.2,1.1,2.6,1.7,4.4
						c0.7,1.7,1.3,3.7,2,5.9c0.6,2.2,1.2,4.7,1.8,7.4c0.6,2.7,1.2,5.5,2.6,8.2c0.7,1.4,1.4,2.7,2,4.3c0.6,1.5,1,3.2,1.2,4.8
						c0.4,3.3,1,6.7,1.7,10.1c1.6,6.9,3.2,13.4,4.6,19.4c1.5,5.9,2.8,11.3,3.9,15.8s2,8.1,2.6,10.7c0.3,1.2,0.5,2.2,0.7,2.9
						c0.1,0.3,0.1,0.6,0.2,0.8c0,0.2,0,0.3,0,0.3s0-0.1-0.1-0.2c-0.1-0.2-0.1-0.4-0.2-0.7c-0.2-0.7-0.4-1.7-0.8-2.9
						c-0.7-2.6-1.6-6.2-2.7-10.6c-1.1-4.5-2.5-9.8-4-15.8c-1.4-6-3-12.5-4.7-19.4c-0.8-3.4-1.4-6.9-1.7-10.2
						c-0.2-1.6-0.5-3.2-1.1-4.7s-1.3-2.8-2-4.2c-1.5-2.7-2.1-5.7-2.6-8.3c-0.6-2.7-1.1-5.1-1.7-7.4c-0.6-2.2-1.2-4.2-1.9-5.9
						c-0.6-1.7-1.3-3.2-1.6-4.4c-0.3-1.3-0.4-2.3-0.6-2.9c-0.1-0.3-0.1-0.6-0.1-0.8C60.1,495.6,60.1,495.5,60.1,495.5z"/>
				</g>
			</g>
		</g>
	</g>
</g>
<g>
	<g>
		<g>
			<path class="st7" d="M84.6,594.3c-5.4-3.3-7-13.2-4.6-19.1c2.3-5.9,6.3-11.3,7-17.7c0.5-4.9-1.1-9.9,0.1-14.6
				c1.6-6.4,7.9-11.3,7.8-17.9c0-3.7-2.1-7.2-1.9-10.9c0.2-4.5,3.7-8.1,5.9-12.1c3.3-6.1,3.6-13.3,4.8-20.2
				c1.2-6.9,3.8-14.2,9.9-17.5c0.9,5.8,2.4,9.8,1.8,17.7c-0.2,2.8-3.5,8.2-4,14.4c-0.3,3.7-0.5,7.4-0.7,11.1
				c-0.2,3.6-0.5,7.3-1.8,10.7c-1,2.6-2.6,4.9-3.4,7.6c-1.4,5,0.4,10.5-0.8,15.6c-1,4.3-4,8-4.6,12.4c-0.9,6.1,3.1,12.6,1,18.4
				c-1,2.9-3.4,5.2-4.1,8.2c-0.5,2.3,0,4.8-0.5,7.1c-0.8,3.8-8,6.7-11.9,6.4"/>
		</g>
	</g>
</g>
<g>
	<g>
		<g>
			<g>
				<path class="st4" d="M112,470.1c0,0,0,0.1,0,0.3c0,0.2-0.1,0.6-0.1,1c-0.1,0.8-0.3,2.1-0.6,3.7s-1.2,3.4-1.8,5.6
					c-0.7,2.2-1.4,4.7-2,7.5s-1.2,5.9-1.7,9.2c-0.6,3.3-1.2,7-2.9,10.4c-0.8,1.7-1.6,3.5-2.3,5.3c-0.7,1.9-1,3.8-1.2,5.9
					c-0.3,4.1-0.9,8.4-1.7,12.7c-1.7,8.6-3.4,16.8-4.9,24.3c-1.6,7.4-3,14.1-4.2,19.8c-1.2,5.6-2.2,10.1-2.9,13.3
					c-0.3,1.5-0.6,2.8-0.8,3.6c-0.1,0.4-0.2,0.7-0.2,0.9c-0.1,0.2-0.1,0.3-0.1,0.3s0-0.1,0-0.3s0.1-0.6,0.2-0.9
					c0.2-0.9,0.4-2.1,0.7-3.6c0.6-3.2,1.6-7.8,2.7-13.4c1.2-5.7,2.5-12.4,4.1-19.8c1.5-7.5,3.1-15.7,4.8-24.3
					c0.8-4.3,1.4-8.5,1.7-12.7c0.2-2.1,0.5-4.1,1.2-6c0.7-1.9,1.6-3.7,2.3-5.4c1.7-3.4,2.3-7,2.9-10.3c0.6-3.3,1.1-6.4,1.8-9.3
					c0.7-2.8,1.4-5.3,2.1-7.5c0.7-2.2,1.6-4,1.9-5.5c0.3-1.6,0.5-2.8,0.7-3.6c0.1-0.4,0.1-0.7,0.2-0.9
					C111.9,470.2,111.9,470.1,112,470.1z"/>
			</g>
		</g>
	</g>
</g>
<g>
	<path class="st8" d="M248.8,542.7v33.6h0.4c4.3,9,44.8,16,94.1,16c49.3,0,89.8-7,94.1-16h0.4v-33.6H248.8z"/>
	<path class="st9" d="M283.2,543.7v44.5c9.6,1.5,20.7,2.6,32.9,3.3v-47.8H283.2z"/>
	<path class="st9" d="M322.3,551.7v40.1c2.7,0.1,5.4,0.2,8.1,0.3v-40.4H322.3z"/>
	<path class="st10" d="M437.8,542.7c0,8.4-42.3,15.2-94.5,15.2c-52.2,0-94.5-6.8-94.5-15.2c0-8.4,42.3-15.2,94.5-15.2
		C395.5,527.5,437.8,534.3,437.8,542.7z"/>
	<path class="st8" d="M414.9,543.6c0,6.3-32.1,11.5-71.6,11.5c-39.5,0-71.6-5.1-71.6-11.5c0-6.3,32-11.5,71.6-11.5
		C382.9,532.1,414.9,537.3,414.9,543.6z"/>
	<path class="st9" d="M407.8,544.7c0,5.7-28.8,10.3-64.4,10.3c-35.6,0-64.4-4.6-64.4-10.3c0-5.7,28.8-10.3,64.4-10.3
		C378.9,534.4,407.8,539,407.8,544.7z"/>
</g>
<g>
	<path class="st8" d="M227.7,512.1v33.6h0.4c4.3,9,44.8,16,94.1,16c49.3,0,89.8-7,94.1-16h0.4v-33.6H227.7z"/>
	<path class="st9" d="M262.1,513.1v44.5c9.6,1.5,20.7,2.6,32.9,3.3v-47.8H262.1z"/>
	<path class="st9" d="M301.2,521.1v40.1c2.7,0.1,5.4,0.2,8.1,0.3v-40.4H301.2z"/>
	<path class="st10" d="M416.8,512.1c0,8.4-42.3,15.2-94.5,15.2c-52.2,0-94.5-6.8-94.5-15.2c0-8.4,42.3-15.2,94.5-15.2
		C374.4,496.9,416.8,503.7,416.8,512.1z"/>
	<path class="st8" d="M393.8,513c0,6.3-32.1,11.5-71.6,11.5c-39.5,0-71.6-5.1-71.6-11.5c0-6.3,32-11.5,71.6-11.5
		C361.8,501.5,393.8,506.7,393.8,513z"/>
	<path class="st9" d="M386.7,514.1c0,5.7-28.8,10.3-64.4,10.3c-35.6,0-64.4-4.6-64.4-10.3c0-5.7,28.8-10.3,64.4-10.3
		C357.8,503.8,386.7,508.4,386.7,514.1z"/>
</g>
<g>
	<g>
		<g>
			<g>
				<g>
					<g>
						<path class="st1" d="M688.7,544.6c0,0.5,0,26.6,0,26.6h-4.4v2.9h4.4V592h83v-16.2h-6.2v-3.5h6.2v-5.3h2.7v-2.4h-3.2v-19.9
							H688.7z"/>
					</g>
				</g>
			</g>
		</g>
		<g>
			<g>
				<g>
					<g>
						<polygon class="st0" points="749.7,544.7 749.7,591.7 771.7,591.7 771.7,575.5 765.6,575.5 765.6,572.2 771.7,572.3 
							771.7,567 774.5,567 774.5,564.3 771.2,564.2 771.2,544.6 						"/>
					</g>
				</g>
			</g>
		</g>
		<g>
			<g>
				<g>
					<g>
						<g>
							<path class="st0" d="M751.2,573.8c0,0.2-15,0.3-33.6,0.3c-18.5,0-33.6-0.1-33.6-0.3c0-0.2,15-0.3,33.6-0.3
								C736.2,573.5,751.2,573.6,751.2,573.8z"/>
						</g>
					</g>
				</g>
			</g>
		</g>
		<g>
			<g>
				<g>
					<g>
						<g>
							<path class="st0" d="M751.2,571.1c0,0.2-15,0.3-33.6,0.3c-18.5,0-33.6-0.1-33.6-0.3c0-0.2,15-0.3,33.6-0.3
								C736.2,570.8,751.2,570.9,751.2,571.1z"/>
						</g>
					</g>
				</g>
			</g>
		</g>
		<g>
			<g>
				<g>
					<g>
						<g>
							<path class="st0" d="M755.6,563.8c0,0.2-15,0.3-33.6,0.3c-18.5,0-33.6-0.1-33.6-0.3c0-0.2,15-0.3,33.6-0.3
								C740.5,563.5,755.6,563.6,755.6,563.8z"/>
						</g>
					</g>
				</g>
			</g>
		</g>
		<g>
			<g>
				<g>
					<g>
						<g>
							<path class="st0" d="M756,583.6c0,0.2-15,0.3-33.6,0.3c-18.5,0-33.6-0.1-33.6-0.3c0-0.2,15-0.3,33.6-0.3
								C740.9,583.3,756,583.4,756,583.6z"/>
						</g>
					</g>
				</g>
			</g>
		</g>
	</g>
</g>
<g>
	<g>
		<g>
			<g>
				<g>
					<g>
						<path class="st1" d="M683,497.3c0,0.5,0,26.6,0,26.6h-4.4v2.9h4.4v17.8h83v-16.2h-6.2v-3.5h6.2v-5.3h2.7v-2.4h-3.2v-19.9H683z
							"/>
					</g>
				</g>
			</g>
		</g>
		<g>
			<g>
				<g>
					<g>
						<polygon class="st0" points="744,497.4 744,544.3 766,544.3 766,528.1 759.9,528.1 759.9,524.9 766,525 766,519.7 
							768.8,519.7 768.8,517 765.5,516.9 765.5,497.3 						"/>
					</g>
				</g>
			</g>
		</g>
		<g>
			<g>
				<g>
					<g>
						<g>
							<path class="st0" d="M745.5,526.5c0,0.2-15,0.3-33.6,0.3c-18.5,0-33.6-0.1-33.6-0.3c0-0.2,15-0.3,33.6-0.3
								C730.5,526.2,745.5,526.3,745.5,526.5z"/>
						</g>
					</g>
				</g>
			</g>
		</g>
		<g>
			<g>
				<g>
					<g>
						<g>
							<path class="st0" d="M745.5,523.8c0,0.2-15,0.3-33.6,0.3c-18.5,0-33.6-0.1-33.6-0.3c0-0.2,15-0.3,33.6-0.3
								C730.5,523.5,745.5,523.6,745.5,523.8z"/>
						</g>
					</g>
				</g>
			</g>
		</g>
		<g>
			<g>
				<g>
					<g>
						<g>
							<path class="st0" d="M749.9,516.5c0,0.2-15,0.3-33.6,0.3c-18.5,0-33.6-0.1-33.6-0.3c0-0.2,15-0.3,33.6-0.3
								C734.8,516.2,749.9,516.3,749.9,516.5z"/>
						</g>
					</g>
				</g>
			</g>
		</g>
		<g>
			<g>
				<g>
					<g>
						<g>
							<path class="st0" d="M750.3,536.3c0,0.2-15,0.3-33.6,0.3c-18.5,0-33.6-0.1-33.6-0.3c0-0.2,15-0.3,33.6-0.3
								C735.2,536,750.3,536.1,750.3,536.3z"/>
						</g>
					</g>
				</g>
			</g>
		</g>
	</g>
</g>
<g>
	<g>
		<g>
			<g>
				<rect x="684.2" y="532.5" class="st4" width="70.8" height="9.7"/>
			</g>
		</g>
	</g>
	<g>
		<g>
			<g>
				<path class="st4" d="M755.1,542.4h-71v-10h71V542.4z M684.3,542.1h70.6v-9.5h-70.6V542.1z"/>
			</g>
		</g>
	</g>
</g>
<g>
	<g>
		<g>
			<g>
				<polygon class="st4" points="690.7,539 700.9,589.3 738.6,589.3 748.5,542.3 				"/>
			</g>
		</g>
	</g>
</g>
<g>
	<g>
		<g>
			<g>
				<polygon class="st11" points="690.7,584.5 696.2,592 742,592 748.5,584.5 				"/>
			</g>
		</g>
	</g>
</g>
<g>
	<g>
		<g>
			<g>
				<g>
					<path class="st4" d="M716.9,540.5c-0.1,0-0.3-23.3-0.4-52c-0.1-28.7,0-52,0.1-52c0.1,0,0.3,23.3,0.4,52
						C717.1,517.2,717,540.5,716.9,540.5z"/>
				</g>
			</g>
		</g>
	</g>
</g>
<g>
	<g>
		<g>
			<g>
				<g>
					<path class="st4" d="M732.7,482.2c0,0-0.1,0.2-0.2,0.5c-0.2,0.4-0.4,0.9-0.6,1.5c-0.1,0.3-0.3,0.7-0.5,1.1
						c-0.1,0.4-0.3,0.9-0.5,1.3c-0.2,0.5-0.4,1-0.5,1.5c-0.2,0.5-0.3,1.1-0.5,1.7c-0.8,2.4-1.4,5.4-2,8.7c-0.5,3.3-0.9,7-1.1,10.8
						c-0.3,7.7,0.1,14.8,0.6,19.8c0.2,2.5,0.5,4.6,0.6,6c0.1,0.7,0.1,1.2,0.2,1.6c0,0.4,0,0.6,0,0.6c0,0-0.1-0.2-0.1-0.6
						c-0.1-0.4-0.2-1-0.3-1.6c-0.2-1.4-0.5-3.4-0.8-6c-0.6-5.1-1.1-12.1-0.7-19.9c0.2-3.9,0.6-7.6,1.1-10.9c0.6-3.3,1.3-6.3,2.1-8.7
						c0.2-0.6,0.4-1.2,0.6-1.7c0.2-0.5,0.4-1,0.6-1.5c0.2-0.5,0.4-0.9,0.5-1.3c0.2-0.4,0.4-0.8,0.5-1.1c0.3-0.6,0.5-1.1,0.7-1.5
						C732.6,482.4,732.7,482.2,732.7,482.2z"/>
				</g>
			</g>
		</g>
	</g>
</g>
<g>
	<g>
		<g>
			<g>
				<g>
					<path class="st4" d="M730.9,463.3c0,0-0.1,0.3-0.2,0.8c-0.2,0.5-0.4,1.3-0.7,2.2c-0.2,0.5-0.3,1-0.5,1.6
						c-0.2,0.6-0.4,1.2-0.6,1.9c-0.4,1.3-0.9,2.9-1.3,4.6c-0.2,0.9-0.5,1.8-0.7,2.7c-0.2,0.9-0.4,1.9-0.7,2.9
						c-0.5,2-0.9,4.2-1.3,6.5c-0.8,4.6-1.5,9.7-1.9,15.1c-0.4,5.4-0.6,10.6-0.7,15.3c0,4.7,0,8.9,0.2,12.5c0.1,1.8,0.2,3.4,0.3,4.8
						c0.1,1.4,0.2,2.6,0.3,3.6c0.1,1,0.1,1.7,0.2,2.3c0,0.5,0,0.8,0,0.8c0,0-0.1-0.3-0.1-0.8c-0.1-0.6-0.2-1.3-0.3-2.3
						c-0.1-1-0.2-2.2-0.3-3.6c-0.1-1.4-0.3-3-0.3-4.8c-0.2-3.5-0.3-7.8-0.3-12.5c0-4.7,0.2-9.9,0.7-15.3c0.5-5.4,1.2-10.5,2-15.2
						c0.5-2.3,0.8-4.5,1.4-6.5c0.2-1,0.5-2,0.7-2.9c0.3-0.9,0.5-1.8,0.7-2.7c0.4-1.7,1-3.3,1.4-4.6c0.2-0.7,0.4-1.3,0.6-1.9
						c0.2-0.6,0.4-1.1,0.6-1.5c0.3-0.9,0.6-1.6,0.8-2.1C730.7,463.6,730.9,463.3,730.9,463.3z"/>
				</g>
			</g>
		</g>
	</g>
</g>
<g>
	<g>
		<g>
			<g>
				<g>
					<path class="st4" d="M712.4,544.6c0,0,0-0.1,0-0.3c0-0.2,0-0.5-0.1-0.8c-0.1-0.7-0.1-1.8-0.2-3.1c-0.2-2.7-0.4-6.6-0.7-11.3
						c-0.6-9.6-1.5-22.8-3.1-37.4c-0.8-7.3-1.8-14.2-2.8-20.5c-0.5-3.1-1-6.1-1.5-8.9c-0.5-2.8-1-5.3-1.5-7.7
						c-0.5-2.4-1-4.5-1.4-6.3c-0.4-1.9-0.8-3.5-1.1-4.8c-0.3-1.3-0.6-2.3-0.7-3c-0.1-0.3-0.1-0.6-0.2-0.8c0-0.2-0.1-0.3,0-0.3
						c0,0,0,0.1,0.1,0.3c0.1,0.2,0.1,0.5,0.2,0.8c0.2,0.7,0.5,1.7,0.8,3c0.4,1.3,0.8,2.9,1.2,4.7c0.4,1.9,1,4,1.5,6.3
						c0.5,2.3,1.1,4.9,1.6,7.7c0.6,2.8,1.1,5.7,1.6,8.9c1,6.3,2,13.2,2.8,20.5c1.6,14.6,2.4,27.8,3,37.4c0.3,4.8,0.4,8.7,0.5,11.4
						c0,1.3,0.1,2.3,0.1,3.1c0,0.3,0,0.6,0,0.8C712.4,544.5,712.4,544.6,712.4,544.6z"/>
				</g>
			</g>
		</g>
	</g>
</g>
<g>
	<g>
		<g>
			<g>
				<path class="st7" d="M716.3,447.6c-0.3-3.3-3.6-5.8-7-5.8c-3.3,0-6.4,2-8.4,4.6c-2,2.6-3.1,5.8-4.1,9c-2.2,7.8-3.5,15.9-2.5,24
					c1,8,4.2,15.9,10,21.6c0.9,0.9,2.2,1.8,3.4,1.6c0.7-0.2,1.3-0.6,1.8-1.1c11.3-10.2,17.9-25.5,17.4-40.8
					c-0.1-3.1-0.5-6.2-2.2-8.8C723.1,449.3,719.2,446.6,716.3,447.6"/>
			</g>
		</g>
	</g>
</g>
<g>
	<g>
		<g>
			<g>
				<path class="st5" d="M691.6,421.2c-1.6,2.8-3.1,5.6-4.7,8.5c-0.1,0.2-0.3,0.4-0.5,0.4c-0.2,0-0.4-0.2-0.6-0.4
					c-4.1-6.3-8.2-12.6-12.3-18.9l2.8-1.6L691.6,421.2z"/>
			</g>
		</g>
	</g>
</g>
<g>
	<g>
		<g>
			<g>
				<g>
					<path class="st6" d="M691.6,421.2c-1.6,2.8-3.1,5.6-4.7,8.5c-0.1,0.2-0.3,0.4-0.5,0.4c-0.2,0-0.4-0.2-0.6-0.4
						c-4.1-6.3-8.2-12.6-12.3-18.9l2.8-1.6L691.6,421.2z"/>
				</g>
			</g>
		</g>
	</g>
</g>
<g>
	<g>
		<g>
			<g>
				<path class="st7" d="M716.6,436.4c-14-8.3-28.1-16.6-42.1-24.8c-0.4-0.3-0.9-0.6-1-1c-0.2-0.6,0.3-1.2,0.7-1.7
					c5.8-6,14.2-9.4,22.5-8.8c8.3,0.6,16.3,5.4,20.3,12.6C721.1,419.9,721.3,429.5,716.6,436.4"/>
			</g>
		</g>
	</g>
</g>
<g>
	<g>
		<g>
			<g>
				<g>
					<path class="st4" d="M680.6,403.7c0,0,0.2,0,0.6-0.1c0.4,0,0.9-0.1,1.6-0.1c1.4,0,3.4,0.1,5.8,0.5c2.4,0.4,5.3,1.2,8.3,2.5
						c3,1.3,6.1,3.3,8.9,5.8c2.8,2.6,5,5.5,6.7,8.3c1.6,2.9,2.7,5.6,3.3,8c0.6,2.4,0.9,4.4,1,5.8c0.1,0.7,0,0.9,0.1,1.2
						c0,0.4-0.3,0.9-0.3,0.9c0,0,0.2-0.8,0.1-2.1c-0.2-1.4-0.5-3.3-1.2-5.7c-1.3-4.7-4.4-11-10-16.1c-5.6-5-12.2-7.5-17-8.3
						c-2.4-0.4-4.4-0.6-5.8-0.6C681.3,403.7,680.6,403.7,680.6,403.7z"/>
				</g>
			</g>
		</g>
	</g>
</g>
<g>
	<g>
		<g>
			<g>
				<g>
					<path class="st4" d="M710.9,419.3c0,0.1-0.8,0.4-2.1,1c-1.3,0.5-3.2,1.2-5.3,1.9c-2.1,0.7-4,1.2-5.4,1.5
						c-1.4,0.3-2.3,0.5-2.3,0.4c0-0.1,0.8-0.4,2.2-0.8c1.6-0.5,3.4-1.1,5.4-1.7c2-0.6,3.8-1.2,5.3-1.7
						C710,419.5,710.9,419.2,710.9,419.3z"/>
				</g>
			</g>
		</g>
	</g>
</g>
<g>
	<g>
		<g>
			<g>
				<g>
					<path class="st4" d="M704.3,401.5c0.1,0,0.4,2.1,0.5,4.7c0.1,2.6-0.1,4.7-0.3,4.7c-0.1,0-0.2-2.1-0.2-4.7
						C704.2,403.6,704.1,401.5,704.3,401.5z"/>
				</g>
			</g>
		</g>
	</g>
</g>
<g>
	<g>
		<g>
			<g>
				<g>
					<path class="st4" d="M674.1,411.1c0-0.1,1.1-0.5,3.1-1.1c1.9-0.6,4.6-1.3,7.5-2.1c3-0.7,5.7-1.3,7.7-1.6c2-0.3,3.2-0.5,3.2-0.4
						c0,0.1-1.2,0.3-3.1,0.8c-1.9,0.4-4.6,1-7.6,1.8c-3,0.7-5.6,1.4-7.6,1.9C675.4,410.9,674.2,411.2,674.1,411.1z"/>
				</g>
			</g>
		</g>
	</g>
</g>
<g>
	<g>
		<g>
			<g>
				<path class="st7" d="M698.9,440.5c-3.6-2.7-7.4-3.3-12-3.1c-4.5,0.2-9,1.6-13.1,3.4c-7.1,3.1-13.8,7.7-18,14.2
					c-4.2,6.5-5.7,15.1-2.5,22.1c0.3,0.7,0.7,1.4,1.4,1.7c0.7,0.3,1.6,0.1,2.4-0.2c8.1-2.6,16.2-5.3,23.6-9.4
					c7.4-4.1,14.2-9.9,18.2-17.4c1-1.8,1.8-3.7,1.9-5.8C700.9,444.1,700.3,441.9,698.9,440.5"/>
			</g>
		</g>
	</g>
</g>
<g>
	<g>
		<g>
			<g>
				<g>
					<path class="st4" d="M698.9,439.6c0,0-0.2,0.1-0.6,0.2c-0.4,0.2-1,0.3-1.7,0.6c-0.4,0.1-0.8,0.3-1.2,0.4
						c-0.4,0.2-0.9,0.4-1.4,0.6c-1,0.4-2.2,0.8-3.5,1.4c-0.6,0.3-1.3,0.6-2,0.9c-0.7,0.3-1.4,0.7-2.1,1.1c-1.5,0.7-2.9,1.6-4.5,2.6
						c-3.1,2-6.4,4.3-9.6,7.1c-3.2,2.8-5.9,5.8-8.3,8.6c-1.1,1.4-2.2,2.8-3.1,4.2c-0.5,0.7-0.9,1.3-1.3,1.9
						c-0.4,0.6-0.8,1.3-1.1,1.8c-0.8,1.2-1.3,2.3-1.9,3.2c-0.3,0.5-0.5,0.9-0.7,1.3c-0.2,0.4-0.4,0.8-0.6,1.2
						c-0.3,0.7-0.6,1.2-0.8,1.6c-0.2,0.4-0.3,0.6-0.3,0.5c0,0,0.1-0.2,0.2-0.6c0.2-0.4,0.4-1,0.7-1.6c0.2-0.4,0.3-0.8,0.5-1.2
						c0.2-0.4,0.4-0.9,0.7-1.4c0.5-1,1.1-2.1,1.8-3.3c0.4-0.6,0.7-1.2,1.1-1.9c0.4-0.6,0.9-1.3,1.3-2c0.9-1.4,2-2.7,3.1-4.2
						c2.3-2.9,5.1-5.8,8.3-8.7c3.2-2.8,6.5-5.2,9.6-7.1c1.6-0.9,3.1-1.8,4.6-2.5c0.7-0.4,1.4-0.7,2.1-1.1c0.7-0.3,1.4-0.6,2-0.9
						c1.3-0.6,2.5-1,3.5-1.4c0.5-0.2,1-0.4,1.5-0.5c0.4-0.1,0.9-0.3,1.2-0.4c0.7-0.2,1.3-0.4,1.7-0.5
						C698.7,439.6,698.9,439.6,698.9,439.6z"/>
				</g>
			</g>
		</g>
	</g>
</g>
<g>
	<g>
		<g>
			<g>
				<g>
					<path class="st4" d="M670.6,454.9c0,0.1-3.9,1.4-8.8,2.8c-4.9,1.4-8.9,2.5-8.9,2.4c0-0.1,3.9-1.4,8.8-2.8
						C666.6,455.9,670.6,454.8,670.6,454.9z"/>
				</g>
			</g>
		</g>
	</g>
</g>
<g>
	<g>
		<g>
			<g>
				<g>
					<path class="st4" d="M670.3,474.4c-0.1,0-0.1-1-0.2-2.7c0-1.7-0.1-4,0-6.6c0.1-2.6,0.2-4.9,0.4-6.6c0.1-1.7,0.3-2.7,0.3-2.7
						c0.1,0,0.1,1.1,0,2.7c-0.1,1.9-0.1,4.1-0.2,6.6c-0.1,2.5-0.1,4.8-0.2,6.6C670.4,473.3,670.3,474.4,670.3,474.4z"/>
				</g>
			</g>
		</g>
	</g>
</g>
<g>
	<g>
		<g>
			<g>
				<g>
					<path class="st4" d="M686.9,465.9c-0.1,0-0.6-4.8-1-10.6c-0.4-5.9-0.6-10.7-0.5-10.7c0.1,0,0.6,4.8,1,10.6
						C686.8,461.1,687.1,465.9,686.9,465.9z"/>
				</g>
			</g>
		</g>
	</g>
</g>
<g>
	<g>
		<g>
			<g>
				<g>
					<path class="st4" d="M666.2,444.1c0-0.1,1.1-0.1,2.8-0.1c1.7,0,4.1,0.1,6.8,0.2c2.7,0.1,5.1,0.2,6.8,0.3
						c1.7,0.1,2.8,0.2,2.8,0.3c0,0.1-1.1,0.1-2.8,0.1c-1.7,0-4.1-0.1-6.8-0.2c-2.7-0.1-5.1-0.2-6.8-0.3
						C667.3,444.3,666.2,444.2,666.2,444.1z"/>
				</g>
			</g>
		</g>
	</g>
</g>
<g>
	<g>
		<g>
			<g>
				<g>
					<path class="st4" d="M706.2,502.1c0,0,0-0.2-0.1-0.6c0-0.4,0-1-0.1-1.6c-0.1-1.4-0.1-3.4,0-6c0-2.5,0.2-5.5,0.5-8.8
						c0.3-3.3,0.8-6.9,1.5-10.7c0.7-3.8,1.5-7.4,2.4-10.6c0.9-3.2,1.8-6.1,2.6-8.5c0.8-2.4,1.6-4.3,2.1-5.6c0.3-0.6,0.5-1.1,0.6-1.5
						c0.2-0.3,0.2-0.5,0.3-0.5c0,0,0,0.2-0.2,0.5c-0.1,0.4-0.3,0.9-0.6,1.5c-0.5,1.3-1.2,3.2-2,5.6c-0.8,2.4-1.7,5.3-2.5,8.5
						c-0.8,3.2-1.7,6.8-2.3,10.5c-0.7,3.8-1.2,7.4-1.5,10.7c-0.3,3.3-0.5,6.3-0.6,8.8c-0.1,2.5-0.1,4.5-0.1,5.9c0,0.7,0,1.2,0,1.6
						C706.2,501.9,706.2,502.1,706.2,502.1z"/>
				</g>
			</g>
		</g>
	</g>
</g>
<g>
	<g>
		<g>
			<g>
				<g>
					<path class="st4" d="M708.4,474.5c0,0-0.6,0.8-1.7,1.8c-1.1,1.1-2.6,2.5-4.4,4.1c-1.8,1.5-3.4,2.9-4.6,3.8
						c-1.2,0.9-2,1.5-2,1.4c0-0.1,0.7-0.7,1.8-1.7c1.3-1.1,2.8-2.5,4.5-3.9c1.7-1.5,3.2-2.8,4.5-4
						C707.6,475.1,708.3,474.5,708.4,474.5z"/>
				</g>
			</g>
		</g>
	</g>
</g>
<g>
	<g>
		<g>
			<g>
				<g>
					<path class="st4" d="M721.7,485.3c-0.1,0-0.7-0.9-1.8-2.5c-1.2-1.7-2.6-3.8-4.2-6.1c-1.6-2.3-3.1-4.3-4.2-6
						c-1.1-1.5-1.8-2.5-1.7-2.5c0.1,0,0.8,0.8,2,2.3c1.2,1.5,2.7,3.6,4.4,5.9c1.6,2.4,3.1,4.6,4,6.2
						C721.2,484.2,721.8,485.2,721.7,485.3z"/>
				</g>
			</g>
		</g>
	</g>
</g>
<g>
	<g>
		<g>
			<g>
				<g>
					<path class="st4" d="M714.7,451.5c0.1,0.1-4.4,3.1-9.9,6.7c-5.5,3.6-10.1,6.3-10.2,6.2c-0.1-0.1,4.4-3.1,9.9-6.7
						C710.1,454.2,714.7,451.4,714.7,451.5z"/>
				</g>
			</g>
		</g>
	</g>
</g>
<g>
	<g>
		<g>
			<g>
				<g>
					<path class="st4" d="M727.2,465c-0.1,0.1-3.1-2.7-6.7-6.2c-3.6-3.5-6.4-6.4-6.3-6.5c0.1-0.1,3.1,2.7,6.7,6.2
						C724.5,461.9,727.3,464.9,727.2,465z"/>
				</g>
			</g>
		</g>
	</g>
</g>
<g>
	<g>
		<g>
			<g>
				<path class="st7" d="M730.4,464.7l3.8-0.3c2.7-0.2,5.3-1,7.7-2.3c1.2-0.7,2.3-1.3,3.6-1.8c4.7-1.9,9.9-1.5,15-1.8
					c8.3-0.4,16.4-2.5,23.9-6.1c0.4-0.2,0.8-0.5,1-0.9c0.8-1.4-0.7-2.7-1.9-3.5c-6.4-3.9-12.9-7.9-20.2-9.9
					c-7.3-2-15.5-1.6-21.7,2.6C734.2,445.7,731.6,456,730.4,464.7"/>
			</g>
		</g>
	</g>
</g>
<g>
	<g>
		<g>
			<g>
				<g>
					<path class="st4" d="M785.4,450.9c0,0-0.2-0.1-0.6-0.3c-0.5-0.2-1.1-0.6-1.8-0.9c-1.6-0.8-3.8-2-6.7-3.4
						c-2.8-1.3-6.3-2.9-10.3-4c-4-1.1-8.6-1.7-13.3-1.1c-4.7,0.6-9.1,2.5-12.2,5.2c-3.1,2.8-5,6.1-6.3,8.9c-1.3,2.8-2.2,5.3-2.8,6.9
						c-0.3,0.8-0.5,1.4-0.7,1.9c-0.2,0.4-0.2,0.7-0.3,0.7c0,0,0-0.2,0.2-0.7c0.1-0.5,0.3-1.1,0.6-1.9c0.5-1.7,1.3-4.1,2.6-7
						c1.3-2.9,3.2-6.3,6.4-9.1c3.1-2.8,7.6-4.7,12.4-5.4c4.8-0.6,9.5,0,13.5,1.1c4,1.1,7.5,2.7,10.3,4.1c2.8,1.4,5.1,2.7,6.6,3.5
						c0.7,0.4,1.3,0.8,1.8,1C785.2,450.8,785.4,450.9,785.4,450.9z"/>
				</g>
			</g>
		</g>
	</g>
</g>
<g>
	<g>
		<g>
			<g>
				<g>
					<path class="st4" d="M776.2,455.8c-0.1,0.1-5-3.1-11.1-7.2c-6.1-4.1-10.9-7.5-10.8-7.6c0.1-0.1,5,3.1,11.1,7.2
						C771.5,452.3,776.3,455.7,776.2,455.8z"/>
				</g>
			</g>
		</g>
	</g>
</g>
<g>
	<g>
		<g>
			<g>
				<g>
					<path class="st4" d="M770.9,440.8c0,0.1-1.6,0.5-3.6,0.7c-2,0.2-3.7,0.1-3.7,0c0-0.1,1.6-0.2,3.6-0.4
						C769.3,440.9,770.9,440.7,770.9,440.8z"/>
				</g>
			</g>
		</g>
	</g>
</g>
<g>
	<g>
		<g>
			<g>
				<g>
					<path class="st4" d="M749.2,438c0.1,0.1-0.6,1.2-1.6,2.5c-1,1.4-1.9,2.4-2.1,2.3c-0.1-0.1,0.6-1.2,1.6-2.5
						C748.1,439,749.1,437.9,749.2,438z"/>
				</g>
			</g>
		</g>
	</g>
</g>
<g>
	<g>
		<g>
			<g>
				<g>
					<path class="st4" d="M753.6,458.8c0,0.1-1-0.4-2.4-1.3c-1.4-0.9-3.4-2.1-5.4-3.7c-2.1-1.5-3.9-2.9-5.2-4
						c-1.3-1-2.1-1.7-2.1-1.8c0-0.1,0.9,0.5,2.3,1.5c1.5,1.1,3.3,2.4,5.3,3.8c2.1,1.5,4,2.8,5.3,3.8
						C752.8,458.1,753.7,458.7,753.6,458.8z"/>
				</g>
			</g>
		</g>
	</g>
</g>
<g>
	<g>
		<g>
			<g>
				<path class="st7" d="M735.9,480.8c-3.6-1-7.9,2.6-8.7,6.2c-0.7,3.7,0.6,7.4,2.2,10.8c3.6,7.5,8.5,14.4,15,19.6
					s14.6,8.5,22.9,8.4c-1.5-7.1,0.4-14.6-0.4-21.8c-0.7-6.3-3.7-12.3-8.2-16.8c-4.5-4.5-10.6-7.4-16.9-8
					C739.5,479.1,736.9,478.7,735.9,480.8"/>
			</g>
		</g>
	</g>
</g>
<g>
	<g>
		<g>
			<g>
				<g>
					<path class="st4" d="M767.4,526c0,0-0.2-0.1-0.5-0.2c-0.3-0.2-0.8-0.5-1.4-0.9c-1.1-0.9-2.4-2.5-3.6-4.8
						c-0.6-1.1-1.2-2.3-1.9-3.7c-0.6-1.4-1.3-2.8-1.9-4.3c-0.7-1.5-1.5-3.1-2.4-4.6c-0.9-1.5-2.1-3-3.3-4.5
						c-2.5-2.9-5.1-5.4-7.5-7.8c-2.3-2.4-4.3-4.7-5.7-6.8c-1.4-2.1-2.3-4-2.8-5.3c-0.2-0.7-0.4-1.2-0.5-1.6
						c-0.1-0.4-0.1-0.6-0.1-0.6c0,0,0.3,0.7,0.8,2c0.5,1.3,1.4,3.1,2.9,5.2c1.4,2.1,3.4,4.3,5.7,6.7c2.3,2.4,5,4.9,7.5,7.8
						c1.3,1.5,2.4,3,3.3,4.6c1,1.6,1.7,3.2,2.4,4.7c0.7,1.5,1.3,3,1.9,4.3c0.6,1.3,1.2,2.6,1.8,3.7c1.1,2.3,2.3,3.9,3.4,4.8
						C766.7,525.6,767.4,525.9,767.4,526z"/>
				</g>
			</g>
		</g>
	</g>
</g>
<g>
	<g>
		<g>
			<g>
				<g>
					<path class="st4" d="M748.7,520c-0.1,0,0-0.9,0.3-2.4c0.3-1.5,0.7-3.5,1.4-5.8c0.6-2.2,1.3-4.2,1.8-5.6c0.5-1.4,0.9-2.3,1-2.3
						c0.1,0-0.2,0.9-0.7,2.4c-0.4,1.4-1.1,3.4-1.7,5.7c-0.6,2.2-1.1,4.2-1.5,5.7C749,519.1,748.7,520.1,748.7,520z"/>
				</g>
			</g>
		</g>
	</g>
</g>
<g>
	<g>
		<g>
			<g>
				<g>
					<path class="st4" d="M766.7,502.6c0,0.1-1-0.2-2.6-0.6c-1.6-0.4-3.7-1-6.1-1.5c-2.4-0.5-4.6-1-6.2-1.3
						c-1.6-0.3-2.6-0.5-2.6-0.6c0-0.1,1,0,2.6,0.2c1.6,0.2,3.8,0.6,6.2,1.1c2.4,0.5,4.6,1.2,6.1,1.7
						C765.8,502.1,766.7,502.5,766.7,502.6z"/>
				</g>
			</g>
		</g>
	</g>
</g>
<g>
	<g>
		<g>
			<g>
				<g>
					<path class="st4" d="M735.2,507.6c-0.1,0,0.1-1.1,0.4-2.8c0.3-1.7,0.8-4.1,1.5-6.7c0.7-2.6,1.4-4.9,2-6.6c0.6-1.7,1-2.7,1-2.7
						c0.1,0-0.2,1.1-0.7,2.8c-0.5,1.7-1.1,4-1.8,6.6c-0.7,2.6-1.2,4.9-1.6,6.7C735.5,506.6,735.3,507.7,735.2,507.6z"/>
				</g>
			</g>
		</g>
	</g>
</g>
<g>
	<g>
		<g>
			<g>
				<g>
					<path class="st4" d="M758.4,487.3c0,0.1-4.5-0.2-10.1-0.8c-5.6-0.6-10.1-1.2-10.1-1.3s4.5,0.2,10.1,0.8
						C753.9,486.6,758.4,487.2,758.4,487.3z"/>
				</g>
			</g>
		</g>
	</g>
</g>
<g>
	<g>
		<g>
			<g>
				<g>
					<path class="st11" d="M755.1,542.2c0,0.1-15.9,0.3-35.5,0.3c-19.6,0-35.5-0.1-35.5-0.3c0-0.1,15.9-0.3,35.5-0.3
						C739.2,542,755.1,542.1,755.1,542.2z"/>
				</g>
			</g>
		</g>
	</g>
</g>
<g>
	<g>
		<g>
			<g>
				<g>
					<path class="st11" d="M744,562.7c0,0.1-10.7,0.3-23.9,0.3c-13.2,0-23.9-0.1-23.9-0.3c0-0.1,10.7-0.3,23.9-0.3
						C733.3,562.4,744,562.5,744,562.7z"/>
				</g>
			</g>
		</g>
	</g>
</g>
<g>
	<g>
		<g>
			<g>
				<g>
					<path class="st11" d="M743.6,565.6c0,0.1-10.5,0.3-23.5,0.3c-13,0-23.5-0.1-23.5-0.3s10.5-0.3,23.5-0.3
						C733.1,565.4,743.6,565.5,743.6,565.6z"/>
				</g>
			</g>
		</g>
	</g>
</g>
<g>
	<g>
		<g>
			<g>
				<g>
					<path class="st11" d="M744.4,560.3c0,0.1-11.1,0.3-24.8,0.3c-13.7,0-24.8-0.1-24.8-0.3c0-0.1,11.1-0.3,24.8-0.3
						C733.4,560,744.4,560.1,744.4,560.3z"/>
				</g>
			</g>
		</g>
	</g>
</g>
<g>
	<path class="st3" d="M641,427.5l-1.2,4.8l-4.3-1l1.1-4.7c-4.2-1.3-8-3.6-9.9-6l3.6-4.7c1.8,2.1,4.6,4,7.6,5.1l1.7-7.2
		c-4.5-2.3-9.5-5.2-8-11.4c1.1-4.6,5.4-7.7,12.4-6.8l1.2-4.8l4.3,1l-1.1,4.7c3.2,1,6.1,2.7,8.1,4.7l-3.4,4.8c-1.9-1.8-4-3.1-6.1-3.8
		l-1.8,7.3c4.5,2.3,9.4,5.1,7.9,11.2C652.2,425.2,648,428.3,641,427.5z M641.3,407.4l1.5-6.1c-2.4,0-3.6,1-4,2.4
		C638.4,405.2,639.5,406.3,641.3,407.4z M646.2,419.6c0.4-1.5-0.7-2.6-2.4-3.7l-1.4,6C644.6,421.8,645.9,420.9,646.2,419.6z"/>
</g>
<g>
	<path class="st3" d="M695.8,325.5l0.4,8.6l-7.7,0.3l-0.4-8.3c-7.6-0.1-15-2.2-19.3-5.3l3.8-9.5c4,2.7,9.6,4.5,15.1,4.8l-0.6-12.8
		c-8.6-1.7-18.2-4.1-18.7-15.1c-0.4-8.1,5.2-15.3,17.3-17.3l-0.4-8.5l7.7-0.3l0.4,8.3c5.8,0.2,11.4,1.5,15.8,4l-3.4,9.6
		c-4-2-8-3.2-11.9-3.5l0.6,13c8.6,1.6,18.1,4,18.5,14.8C713.3,316.4,707.8,323.6,695.8,325.5z M686.7,292l-0.5-10.9
		c-4,1.1-5.5,3.4-5.4,5.9C680.9,289.8,683.3,291.1,686.7,292z M700.7,309.9c-0.1-2.7-2.4-4-5.7-5l0.5,10.6
		C699.2,314.4,700.8,312.4,700.7,309.9z"/>
</g>
<g>
	<polygon class="st9" points="484.1,204 478.2,204 478.2,172.3 500.4,161.1 500.4,129.3 506.3,129.3 506.3,165 484.1,176.1 	"/>
</g>
<g>
	<path class="st9" d="M516.9,123.6c0,8.3-6.5,15.1-14.6,15.1c-8.1,0-14.6-6.8-14.6-15.1c0-8.3,6.6-15.1,14.6-15.1
		C510.3,108.5,516.9,115.2,516.9,123.6z"/>
</g>
<g>
	<path class="st9" d="M572.7,60.6c0,8.3-6.6,15.1-14.6,15.1c-8.1,0-14.6-6.8-14.6-15.1c0-8.3,6.6-15.1,14.6-15.1
		C566.1,45.5,572.7,52.3,572.7,60.6z"/>
</g>
<g>
	<polygon class="st9" points="533.1,220.3 527.1,220.3 527.1,168.6 555.1,155.5 555.1,60.6 561,60.6 561,159.5 533.1,172.6 	"/>
</g>
<g>
	<g>
		<polygon class="st9" points="437,202.4 431,202.4 431,174.5 408.9,163.4 408.9,127.7 414.8,127.7 414.8,159.5 437,170.7 		"/>
	</g>
	<g>
		<path class="st9" d="M398.3,122c0,8.3,6.6,15.1,14.6,15.1c8.1,0,14.6-6.8,14.6-15.1c0-8.3-6.5-15.1-14.6-15.1
			C404.9,106.9,398.3,113.6,398.3,122z"/>
	</g>
	<g>
		<path class="st9" d="M342.5,68.1c0,8.3,6.6,15.1,14.6,15.1c8.1,0,14.6-6.8,14.6-15.1c0-8.3-6.6-15.1-14.6-15.1
			C349.1,53,342.5,59.8,342.5,68.1z"/>
	</g>
	<g>
		<polygon class="st9" points="388,227.9 382.1,227.9 382.1,180.1 354.2,167 354.2,68.1 360.1,68.1 360.1,163.1 388,176.2 		"/>
	</g>
</g>
<g>
	<g>
		<polygon class="st9" points="609.1,253.4 558.1,253.4 558.1,247.3 603.2,247.3 603.2,162.7 609.1,162.7 		"/>
	</g>
	<g>
		<path class="st9" d="M620.8,162.7c0,8.3-6.6,15.1-14.6,15.1c-8.1,0-14.6-6.8-14.6-15.1c0-8.3,6.6-15.1,14.6-15.1
			C614.3,147.6,620.8,154.4,620.8,162.7z"/>
	</g>
</g>
<g>
	<g>
		<polygon class="st9" points="362.5,259.5 311.4,259.5 311.4,168.8 317.3,168.8 317.3,253.4 362.5,253.4 		"/>
	</g>
	<g>
		<path class="st9" d="M299.7,168.8c0,8.3,6.5,15.1,14.6,15.1c8.1,0,14.6-6.8,14.6-15.1c0-8.3-6.6-15.1-14.6-15.1
			C306.3,153.7,299.7,160.4,299.7,168.8z"/>
	</g>
</g>
<g>
	<polygon class="st9" points="484.1,369.4 478.2,369.4 478.2,401 500.4,412.2 500.4,444.1 506.3,444.1 506.3,408.4 484.1,397.2 	"/>
</g>
<g>
	<path class="st9" d="M516.9,449.8c0-8.3-6.5-15.1-14.6-15.1c-8.1,0-14.6,6.8-14.6,15.1c0,8.3,6.6,15.1,14.6,15.1
		C510.3,464.9,516.9,458.1,516.9,449.8z"/>
</g>
<g>
	<polygon class="st9" points="533.1,353.1 527.1,353.1 527.1,404.7 555.1,417.8 555.1,512.8 561,512.8 561,413.9 533.1,400.8 	"/>
</g>
<g>
	<g>
		<polygon class="st9" points="437,371 431,371 431,398.8 408.9,410 408.9,445.7 414.8,445.7 414.8,413.8 437,402.6 		"/>
	</g>
	<g>
		<path class="st9" d="M398.3,451.4c0-8.3,6.6-15.1,14.6-15.1c8.1,0,14.6,6.8,14.6,15.1c0,8.3-6.5,15.1-14.6,15.1
			C404.9,466.5,398.3,459.7,398.3,451.4z"/>
	</g>
	<g>
		<path class="st9" d="M342.5,505.2c0-8.3,6.6-15.1,14.6-15.1c8.1,0,14.6,6.8,14.6,15.1c0,8.3-6.6,15.1-14.6,15.1
			C349.1,520.3,342.5,513.6,342.5,505.2z"/>
	</g>
	<g>
		<polygon class="st9" points="388,345.5 382.1,345.5 382.1,393.3 354.2,406.4 354.2,505.2 360.1,505.2 360.1,410.3 388,397.2 		"/>
	</g>
</g>
<g>
	<g>
		<polygon class="st9" points="609.1,319.9 558.1,319.9 558.1,326 603.2,326 603.2,410.6 609.1,410.6 		"/>
	</g>
	<g>
		<path class="st9" d="M620.8,410.6c0-8.3-6.6-15.1-14.6-15.1c-8.1,0-14.6,6.8-14.6,15.1c0,8.3,6.6,15.1,14.6,15.1
			C614.3,425.7,620.8,419,620.8,410.6z"/>
	</g>
</g>
<g>
	<g>
		<polygon class="st9" points="362.5,313.9 311.4,313.9 311.4,404.6 317.3,404.6 317.3,320 362.5,320 		"/>
	</g>
	<g>
		<path class="st9" d="M299.7,404.6c0-8.3,6.5-15.1,14.6-15.1c8.1,0,14.6,6.8,14.6,15.1c0,8.3-6.6,15.1-14.6,15.1
			C306.3,419.7,299.7,412.9,299.7,404.6z"/>
	</g>
</g>
<g>
	<g>
		<ellipse class="st8" cx="461.4" cy="291.5" rx="110.4" ry="113.9"/>
	</g>
	<g>
		<path class="st9" d="M566.2,291.5c0,59.7-46.9,108.1-104.8,108.1c-57.9,0-104.8-48.4-104.8-108.1c0-59.7,46.9-108.1,104.8-108.1
			C519.3,183.4,566.2,231.8,566.2,291.5z"/>
	</g>
	<g>
		<path class="st8" d="M544,291.5c0,47.1-37,85.2-82.6,85.2c-45.6,0-82.6-38.2-82.6-85.2c0-47.1,37-85.2,82.6-85.2
			C507,206.3,544,244.5,544,291.5z"/>
	</g>
	<g>
		<path class="st10" d="M540.5,295.1c0,45.1-35.4,81.6-79.1,81.6c-43.7,0-79.1-36.6-79.1-81.6c0-45.1,35.4-81.6,79.1-81.6
			C505.1,213.5,540.5,250,540.5,295.1z"/>
	</g>
	<g>
		<g>
			<g>
				<path class="st8" d="M431.5,248.1c5.3-1.1,16-1.9,26.1-1.9c12.3,0,19.9,1.2,26.4,5.2c6.2,3.4,10.7,9.7,10.7,18.1
					c0,8.2-4.6,15.9-14.7,19.7v0.3c10.2,2.9,17.8,10.8,17.8,22.7c0,8.3-3.7,14.9-9.3,19.6c-6.5,5.3-17.4,8.3-35.1,8.3
					c-9.9,0-17.4-0.7-21.9-1.4V248.1z M451.5,283.4h6.6c10.6,0,16.3-4.5,16.3-11.4c0-7-5.2-10.7-14.3-10.7c-4.4,0-6.9,0.3-8.6,0.5
					V283.4z M451.5,324.3c2,0.3,4.4,0.3,7.8,0.3c9.2,0,17.2-3.6,17.2-13.3c0-9.3-8.1-13-18.2-13h-6.9V324.3z"/>
			</g>
		</g>
		<g>
			<rect x="441.7" y="232.9" class="st8" width="9.4" height="22.9"/>
		</g>
		<g>
			<rect x="461.9" y="232.9" class="st8" width="9.4" height="22.9"/>
		</g>
		<g>
			<rect x="441.7" y="328.8" class="st8" width="9.4" height="22.9"/>
		</g>
		<g>
			<rect x="461.9" y="328.8" class="st8" width="9.4" height="22.9"/>
		</g>
	</g>
</g>
<g>
	<g>
		<g>
			<g>
				<g>
					<g>
						<path class="st1" d="M275.2,265.6c4.1,20.7-9.4,40.8-30.2,44.9c-20.8,4.1-40.9-9.4-45-30.1c-4.1-20.7,9.4-40.8,30.2-44.9
							C250.9,231.4,271.1,244.9,275.2,265.6z"/>
					</g>
				</g>
			</g>
			<g>
				<g>
					<g>
						<path class="st3" d="M266.2,267.4c3.1,15.8-7.2,31.1-23,34.2c-15.8,3.1-31.2-7.2-34.3-22.9c-3.1-15.8,7.2-31.1,23-34.2
							C247.8,241.3,263.1,251.6,266.2,267.4z"/>
					</g>
				</g>
			</g>
			<g>
				<g>
					<g>
						<g>
							<path class="st0" d="M266,266.5c-0.2,0-0.5-1.2-1.4-3.3c-0.9-2.1-2.4-5.1-5-8.1c-1.3-1.5-2.9-3.1-4.8-4.5
								c-1.9-1.4-4.1-2.7-6.6-3.6c-1.2-0.5-2.5-0.9-3.9-1.2c-1.3-0.3-2.7-0.6-4.2-0.7c-1.4-0.1-2.9-0.1-4.4,0
								c-1.5,0.1-3,0.3-4.5,0.7c-1.5,0.4-2.9,0.8-4.3,1.4c-1.4,0.5-2.7,1.2-3.9,1.9c-1.2,0.7-2.4,1.6-3.5,2.4
								c-1.1,0.9-2.1,1.8-3,2.8c-1.8,1.9-3.2,4-4.3,6.1c-1.1,2.1-1.9,4.2-2.4,6.1c-1,3.9-1.1,7.2-1,9.5c0.1,2.3,0.3,3.6,0.1,3.6
								c-0.1,0-0.6-1.2-1-3.5c-0.4-2.3-0.6-5.8,0.3-10c0.5-2.1,1.2-4.3,2.3-6.6c1.1-2.3,2.6-4.5,4.5-6.7c0.9-1.1,2-2.1,3.1-3
								c1.1-1,2.4-1.9,3.7-2.7c1.3-0.8,2.7-1.5,4.2-2.1c1.5-0.6,3-1.1,4.6-1.5c1.6-0.4,3.2-0.6,4.8-0.7c1.6-0.1,3.2-0.1,4.7,0.1
								c1.5,0.1,3,0.4,4.5,0.8c1.4,0.4,2.8,0.8,4.1,1.4c2.6,1.1,4.9,2.5,6.9,4.1c2,1.6,3.6,3.3,4.9,4.9c2.6,3.4,4,6.6,4.6,8.8
								C266.1,265.1,266.2,266.4,266,266.5z"/>
						</g>
					</g>
				</g>
			</g>
		</g>
	</g>
	<g>
		<g>
			<g>
				<path class="st0" d="M226.3,261c1.7-0.6,5.3-1.4,8.7-1.9c4.1-0.6,6.7-0.6,9.1,0.3c2.3,0.7,4.1,2.5,4.5,5c0.4,2.5-0.8,5.1-4,6.8
					l0,0.1c3.6,0.4,6.5,2.4,7,6.1c0.4,2.6-0.5,4.8-2.2,6.5c-1.9,2-5.4,3.5-11.4,4.4c-3.3,0.5-5.9,0.7-7.4,0.7L226.3,261z
					 M234.7,270.9l2.2-0.3c3.6-0.5,5.3-2.2,4.9-4.3c-0.3-2.2-2.2-3-5.3-2.6c-1.5,0.2-2.3,0.4-2.9,0.6L234.7,270.9z M236.6,283.6
					c0.7,0,1.5-0.1,2.6-0.3c3.1-0.5,5.6-2,5.2-5c-0.4-2.9-3.3-3.6-6.7-3.1l-2.3,0.4L236.6,283.6z"/>
			</g>
		</g>
		<g>
			
				<rect x="229.5" y="255.6" transform="matrix(0.9885 -0.1509 0.1509 0.9885 -36.4602 37.8499)" class="st0" width="3.2" height="7.2"/>
		</g>
		<g>
			
				<rect x="236.3" y="254.5" transform="matrix(0.9885 -0.1509 0.1509 0.9885 -36.2262 38.8619)" class="st0" width="3.2" height="7.2"/>
		</g>
		<g>
			
				<rect x="234.1" y="285.2" transform="matrix(0.9885 -0.1509 0.1509 0.9885 -40.8796 38.8718)" class="st0" width="3.2" height="7.2"/>
		</g>
		<g>
			
				<rect x="240.8" y="284.1" transform="matrix(0.9885 -0.1509 0.1509 0.9885 -40.6456 39.8838)" class="st0" width="3.2" height="7.2"/>
		</g>
	</g>
</g>
<g>
	<g>
		<g>
			<g>
				<path class="st5" d="M580.8,568.9l15,5.3l-0.2,14.4c-7.2,2-8.2,5.7-8.2,5.7l15-0.3l13.1-26.6l-10.3-6.8l-19.3-8.5"/>
			</g>
			<g class="st12">
				<polygon class="st13" points="615.5,567.3 602.4,593.9 587.4,594.2 589,591.9 601.2,591 613.3,565.9 				"/>
			</g>
		</g>
		<g>
			<g>
				<path class="st4" d="M595.5,582c0.1,0.2,1-0.4,2.1-0.4c1.2,0,2,0.5,2.1,0.3c0.1-0.1-0.7-1-2.1-1
					C596.3,581,595.4,581.9,595.5,582z"/>
			</g>
		</g>
		<g>
			<g>
				<path class="st4" d="M595.7,578.4c0.2,0.1,0.8-0.8,2-1.1c1.2-0.3,2.2,0.3,2.3,0.1c0-0.1-0.1-0.3-0.6-0.5
					c-0.4-0.2-1.1-0.4-1.8-0.2c-0.7,0.2-1.3,0.6-1.6,1C595.7,578.1,595.6,578.4,595.7,578.4z"/>
			</g>
		</g>
		<g>
			<g>
				<path class="st4" d="M595.5,573.8c0.2,0.1,0.7-0.8,1.7-1.2c1-0.4,2-0.1,2.1-0.2c0-0.1-0.2-0.3-0.6-0.4c-0.4-0.1-1.1-0.2-1.7,0
					c-0.7,0.2-1.1,0.7-1.3,1.1C595.4,573.5,595.4,573.8,595.5,573.8z"/>
			</g>
		</g>
		<g>
			<g>
				<path class="st4" d="M594.4,573.8c0.2,0,0.1-1,0.5-2c0.4-1,1.2-1.6,1.1-1.8c-0.1-0.2-1.2,0.2-1.7,1.5
					C593.8,572.8,594.2,573.9,594.4,573.8z"/>
			</g>
		</g>
		<g>
			<g>
				<path class="st4" d="M592.6,572.1c0.1,0,0.2-0.8,0.4-2c0.1-0.7,0.1-1.5,0.2-2.2c0-0.4,0.1-0.8,0-1.4c-0.1-0.3-0.2-0.6-0.5-0.7
					c-0.3-0.2-0.8-0.2-1,0c-0.5,0.4-0.7,0.9-0.9,1.3c-0.2,0.5-0.2,0.9-0.3,1.4c-0.1,0.9,0.1,1.7,0.4,2.3c0.5,1.2,1.3,1.7,1.3,1.6
					c0.1-0.1-0.5-0.6-0.9-1.8c-0.2-0.6-0.3-1.3-0.2-2.1c0-0.4,0.1-0.8,0.3-1.2c0.1-0.4,0.4-0.8,0.6-1c0.1-0.1,0.2-0.1,0.3,0
					c0.1,0.1,0.2,0.2,0.2,0.3c0.1,0.3,0,0.8,0,1.2c0,0.7,0,1.5-0.1,2.2C592.5,571.3,592.5,572.1,592.6,572.1z"/>
			</g>
		</g>
		<g>
			<g>
				<path class="st4" d="M592.4,572.8c0.1,0-0.4-0.7-1.5-1.1c-1.1-0.3-3.1-0.3-4.3,1.5c-0.1,0.2,0,0.4,0.1,0.6
					c0.1,0.2,0.3,0.3,0.4,0.3c0.3,0.1,0.5,0.1,0.7,0.1c0.4,0,0.8,0,1.2,0c0.8-0.1,1.5-0.3,2-0.5C592,573.3,592.5,572.7,592.4,572.8
					c0-0.2-0.5,0.2-1.6,0.5c-0.5,0.2-1.2,0.3-1.9,0.3c-0.4,0-0.7,0-1.1,0c-0.2,0-0.4,0-0.5-0.1c-0.1-0.1-0.1-0.1-0.1-0.1
					c0-0.1,0.2-0.2,0.3-0.4c0.1-0.1,0.3-0.2,0.4-0.4c0.3-0.2,0.6-0.4,1-0.5c0.7-0.2,1.3-0.2,1.8-0.1
					C591.8,572.4,592.3,572.8,592.4,572.8z"/>
			</g>
		</g>
		<g class="st12">
			<path class="st13" d="M603.5,567.1c0,1,0.8,1.8,1.8,1.7c1,0,1.8-0.8,1.7-1.8c0-1-0.8-1.8-1.8-1.7
				C604.3,565.3,603.5,566.2,603.5,567.1z"/>
		</g>
	</g>
</g>
<g>
	<g>
		<g>
			<path class="st5" d="M503.7,562.9l0.2,19.7c0,0-19.9,6.8-20.2,10.4l38.1,1l0.9-30.6L503.7,562.9z"/>
		</g>
		<g class="st12">
			<g>
				<path class="st13" d="M515.8,581.2c0.7,0.2,1.2,1.1,1,1.8c-0.2,0.7-1,1.2-1.8,1c-0.7-0.2-1.4-1.2-1.1-1.9c0.3-0.7,1.3-1.3,2-0.9
					"/>
			</g>
		</g>
		<g class="st12">
			<path class="st13" d="M521.9,593.9l0-3.1l-36.6,0.2c0,0-1.7,0.7-1.6,1.9L521.9,593.9z"/>
		</g>
		<g>
			<g>
				<path class="st4" d="M503.3,582.3c0,0.2,0.9,0.3,1.8,0.9c0.9,0.6,1.4,1.4,1.5,1.3c0.2,0-0.1-1.2-1.2-1.9
					C504.4,581.9,503.3,582.1,503.3,582.3z"/>
			</g>
		</g>
		<g>
			<g>
				<path class="st4" d="M499.3,583.9c0,0.2,0.8,0.5,1.4,1.3c0.6,0.8,0.8,1.6,1,1.6c0.2,0,0.3-1.1-0.4-2
					C500.4,583.8,499.3,583.7,499.3,583.9z"/>
			</g>
		</g>
		<g>
			<g>
				<path class="st4" d="M496.9,588.6c0.2,0,0.5-0.9,0-1.9c-0.4-1-1.3-1.5-1.4-1.3c-0.1,0.2,0.4,0.7,0.8,1.6
					C496.7,587.8,496.7,588.6,496.9,588.6z"/>
			</g>
		</g>
		<g>
			<g>
				<path class="st4" d="M503.8,577.8c0.1,0.2,0.9-0.1,2,0c1.1,0.1,1.9,0.5,2,0.3c0.1-0.1-0.7-0.8-1.9-0.9
					C504.6,577.1,503.7,577.7,503.8,577.8z"/>
			</g>
		</g>
	</g>
	<g class="st14">
		<polygon points="503.8,566.7 503.8,570.3 522.6,570.6 522.7,567.4 		"/>
	</g>
	<g>
		<g>
			<path class="st4" d="M503.8,573.9c0,0.1,0.7,0.2,1.9,0c0.6-0.1,1.3-0.3,2-0.6c0.4-0.2,0.7-0.3,1.1-0.6c0.2-0.1,0.4-0.2,0.6-0.4
				c0.2-0.2,0.3-0.7,0.1-1c-0.2-0.3-0.5-0.4-0.8-0.4c-0.3,0-0.5,0-0.7,0.1c-0.4,0.1-0.8,0.2-1.2,0.4c-0.7,0.3-1.3,0.7-1.8,1.1
				c-0.9,0.8-1.2,1.5-1.2,1.5c0.1,0.1,0.5-0.5,1.4-1.2c0.5-0.3,1-0.7,1.7-0.9c0.3-0.1,0.7-0.2,1.1-0.3c0.4-0.1,0.8-0.1,0.8,0.1
				c0,0.1,0,0.1,0,0.2c-0.1,0.1-0.3,0.2-0.4,0.3c-0.3,0.2-0.7,0.4-1,0.6c-0.7,0.3-1.3,0.5-1.9,0.7
				C504.5,573.7,503.8,573.8,503.8,573.9z"/>
		</g>
	</g>
	<g>
		<g>
			<path class="st4" d="M504.1,574.1c0.1,0,0.5-0.6,0.6-1.8c0-0.6,0-1.3-0.2-2.1c-0.1-0.4-0.3-0.8-0.5-1.2c-0.2-0.4-0.5-0.9-1.2-1
				c-0.4,0-0.7,0.3-0.8,0.5c-0.1,0.3-0.2,0.5-0.2,0.7c-0.1,0.4-0.1,0.9,0,1.3c0.1,0.8,0.4,1.5,0.8,2c0.7,1,1.5,1.2,1.5,1.2
				c0.1-0.1-0.6-0.5-1.1-1.4c-0.3-0.5-0.5-1.1-0.6-1.8c0-0.4,0-0.7,0.1-1.1c0.1-0.4,0.2-0.7,0.4-0.7c0.2,0,0.5,0.3,0.7,0.6
				c0.2,0.3,0.3,0.7,0.4,1c0.2,0.7,0.3,1.4,0.3,1.9C504.2,573.4,504,574.1,504.1,574.1z"/>
		</g>
	</g>
</g>
<g>
	<g>
		<g>
			<polygon class="st4" points="592.4,552.8 548.5,536.5 594.7,530 597,507.5 510.6,515.1 498.5,532.6 501.7,554.6 585.8,576 			"/>
		</g>
		<g>
			<path class="st4" d="M499.3,568.6l-4.2-80.4c0.2-7.8,4.5-15,11.3-18.9l0,0c5.6-3.2,12.3-3.9,18.5-1.9l56,18.7l30.7,7.9
				c0,0,5.2,12.9,2.2,23c-3,9.8-13.8,16.4-23.3,13.6c-11.8-3.5-65.8-26.7-65.8-26.7v65.4L499.3,568.6z"/>
		</g>
		<g>
			<g>
				<path class="st11" d="M589.7,530.7c0,0-0.1,0-0.3-0.1c-0.2-0.1-0.6-0.2-1-0.4c-0.9-0.3-2.1-0.8-3.7-1.5
					c-3.2-1.3-7.8-3.2-13.5-5.5c-11.4-4.7-27.1-11.2-44.4-18.3c-0.8-0.3-1.5-0.6-2.3-0.9l0.4-0.2c0,18.2-0.1,34.5-0.1,46.4
					c0,5.9-0.1,10.6-0.1,14c0,1.6,0,2.9,0,3.8c0,0.4,0,0.7,0,1c0,0.2,0,0.3,0,0.3s0-0.1,0-0.3c0-0.2,0-0.6,0-1c0-0.9,0-2.2,0-3.8
					c0-3.3,0-8.1-0.1-14c0-11.8,0-28.2-0.1-46.4l0-0.4l0.4,0.1c0.7,0.3,1.5,0.6,2.3,0.9c17.3,7.2,32.9,13.7,44.3,18.5
					c5.6,2.4,10.2,4.3,13.4,5.6c1.6,0.7,2.8,1.2,3.6,1.6c0.4,0.2,0.7,0.3,0.9,0.4C589.6,530.7,589.7,530.7,589.7,530.7z"/>
			</g>
		</g>
		<g>
			<g>
				<path class="st11" d="M537.9,530.8c0-0.1,2.8,0.4,5.8,2c3,1.6,4.9,3.7,4.8,3.8c-0.1,0.1-2.1-1.7-5-3.3
					C540.5,531.7,537.9,531,537.9,530.8z"/>
			</g>
		</g>
	</g>
	<g>
		<g>
			<path class="st11" d="M519.8,492.9c0.1-0.1,1.6,2.3,3,5.4c1.4,3.1,2.2,5.8,2.1,5.8c-0.1,0.1-1.2-2.5-2.6-5.6
				C520.9,495.5,519.7,493,519.8,492.9z"/>
		</g>
	</g>
</g>
<polygon class="st15" points="520,457.5 510.1,455.6 499.6,466.3 501.6,473 513.7,468.5 "/>
<g>
	<g>
		<path class="st16" d="M483.3,339.7l-2.7,0.2c0,0-4.8,0.8-4.8,0.9c0,0.1-2.1,3.1-2.1,3.1l-1.9,3c0,0,1.6,0.6,2.7-0.5l-0.7,1.5
			c0,0,2.2,1,3.7-1.4c0.9-1.4,1.6-2.4,2.1-3l0.9-0.1c0.1,0.2,3.5,5,3.5,4.9c0.1-0.1,2.9-2.8,2.9-2.8L483.3,339.7z"/>
	</g>
	<g>
		<path class="st15" d="M490.5,360.5l0.8-14.8l-7.5-8.5l-8.3,0.5l-3.4,2.4c0.2,0.8,2.5,1.4,5,0.6c2.4-0.7,5.2-0.2,5.2-0.2l3.2,5.5
			l-2.1,2.3l2.7,14.2L490.5,360.5z"/>
	</g>
	<g>
		<path class="st4" d="M468.6,340.9h26.9c0.7,0,1.2,0.5,1.2,1.2l0,0c0,0.7-0.5,1.2-1.2,1.2h-26.9l-2.6-1.2L468.6,340.9z"/>
	</g>
	<g>
		<path class="st15" d="M482.2,364.5l-2.7-6.7c-0.3-0.9-0.5-1.8-0.5-2.7c0.1-2.4,0.3-7.3-0.1-8.4c-0.5-1.5-2.5-6.6-1.4-7.4
			c1.1-0.8,2.7-1,3.8,2c1.1,3,4.5,9.5,4.5,9.5l2.6,10.7L482.2,364.5z"/>
	</g>
	<g>
		<g>
			<path class="st16" d="M485.5,350.1c-0.1,0-0.7-1.1-1.6-2.9c-0.9-1.8-2.1-4.4-3.4-7.1c-0.4-0.6-1-1.1-1.6-1c-0.6,0-1.2,0.5-1.3,1
				c-0.2,0.6-0.1,1.2,0.1,1.8c0.1,0.6,0.2,1.1,0.4,1.6c0.5,1.9,1.1,3.1,1,3.1c0,0-0.2-0.2-0.5-0.8c-0.3-0.5-0.6-1.3-0.9-2.2
				c-0.2-0.5-0.3-1-0.4-1.6c-0.1-0.6-0.3-1.2-0.1-2c0.2-0.7,0.9-1.3,1.8-1.4c0.9,0,1.6,0.6,2,1.3c1.4,2.8,2.5,5.3,3.3,7.2
				C485.1,348.9,485.5,350.1,485.5,350.1z"/>
		</g>
	</g>
</g>
<g>
	<polygon class="st15" points="610.7,493.8 608,489 578.7,481.7 582.1,487.6 	"/>
</g>
<g>
	<path class="st17" d="M479.6,364.5l18.5,43.7c1.7,4.1,5,7.4,9.2,9.1l39.8,16.3l9.3-25.6l-38.8-13.7l-25.2-35.9L479.6,364.5z"/>
</g>
<g>
	<path class="st17" d="M539.6,408.4c0,1-4.3,32.8-4.3,39.3c0,6.5,12.4,13.6,12.4,13.6l13.6,28.9h48.5l-16.6-31.2l-7.5-25
		c-2.8-9.5-8-18-15.1-25l-8.1-5.4L539.6,408.4z"/>
</g>
<g>
	<path class="st17" d="M553.7,433.5l8.2,34.2l-41.1-11.6l-7,12.4l53.5,24.4c6.6,3,14.4,0.9,18.5-5l0,0c2.5-3.6,3.3-8.1,2.3-12.4
		l-12-46.8c-1.6-6.4-8.4-10.1-14.7-8l0,0C555.9,422.5,552.7,428,553.7,433.5z"/>
</g>
<g>
	<g>
		<path class="st4" d="M547.7,461.3c0,0-0.2-0.1-0.5-0.2c-0.3-0.1-0.7-0.4-1.3-0.7c-1.1-0.6-2.7-1.6-4.5-3c-1.8-1.4-3.9-3.3-5.3-6
			c-1.3-2.8-1.2-6.3-0.7-9.8c0.5-3.5,1.2-6.7,1.6-9.7c0.5-3,0.8-5.7,0.9-7.9c0.2-2.3,0.2-4.1,0.2-5.4c0-1.3,0-2,0-2
			c0,0,0,0.2,0.1,0.5c0,0.3,0.1,0.8,0.1,1.5c0.1,1.3,0.1,3.1,0,5.4c-0.1,2.3-0.4,5-0.8,8c-0.4,3-1.1,6.2-1.6,9.7
			c-0.5,3.4-0.6,6.8,0.7,9.5c1.3,2.7,3.4,4.5,5.1,5.9c1.8,1.4,3.3,2.4,4.4,3.1C547.1,460.9,547.7,461.3,547.7,461.3z"/>
	</g>
</g>
<g>
	<g>
		<path class="st4" d="M570.4,424.5c-0.1,0.2-2.4-1.1-5.5-1.3c-3.2-0.2-5.6,0.7-5.7,0.6c-0.1-0.1,2.4-1.3,5.7-1.1
			C568.2,422.8,570.5,424.4,570.4,424.5z"/>
	</g>
</g>
<g>
	<g>
		<path class="st4" d="M564.8,406c0,0-0.2,0.3-0.7,0.8c-0.5,0.5-1.2,1.2-2.2,2.1c-1.9,1.7-4.5,4.1-7.6,6.5c-3,2.4-5.9,4.5-8,6
			c-1.1,0.7-1.9,1.3-2.5,1.7c-0.6,0.4-1,0.6-1,0.5c0,0,0.3-0.3,0.9-0.7c0.7-0.5,1.5-1.1,2.4-1.8c2-1.5,4.9-3.6,7.9-6.1
			c3-2.4,5.7-4.7,7.6-6.4c0.9-0.8,1.7-1.4,2.3-2C564.5,406.2,564.8,406,564.8,406z"/>
	</g>
</g>
<g>
	<g>
		<path class="st4" d="M517.6,394.4c0.1,0.1-1.4,0.8-3.1,1.9c-1.7,1.1-2.8,2.2-2.9,2.1c-0.1-0.1,0.9-1.4,2.7-2.5
			C515.9,394.7,517.5,394.2,517.6,394.4z"/>
	</g>
</g>
<g>
	<g>
		<g>
			<path class="st18" d="M557.6,449c0,0-0.3,0.1-0.9,0.3c-0.6,0.2-1.4,0.3-2.5,0.4c-1.1,0.1-2.4,0.2-3.8,0.1c-1.4-0.1-3-0.3-4.6-0.7
				c-1.6-0.4-3.1-1-4.4-1.6c-1.3-0.6-2.4-1.3-3.3-1.9c-0.9-0.6-1.6-1.2-2-1.6c-0.4-0.4-0.7-0.6-0.7-0.7c0.1-0.1,1.1,0.8,2.9,1.9
				c1.8,1.1,4.5,2.4,7.6,3.2c3.2,0.8,6.1,0.9,8.3,0.7C556.3,449.3,557.6,449,557.6,449z"/>
		</g>
	</g>
	<g>
		<g>
			<path class="st18" d="M560.4,464.1c0,0.1-0.7,0.2-1.8,0.3c-1.2,0.1-2.8,0.1-4.5-0.3c-1.7-0.4-3.2-1-4.3-1.5c-1-0.5-1.6-1-1.6-1
				c0.1-0.1,2.5,1.3,5.9,2C557.5,464.3,560.4,463.9,560.4,464.1z"/>
		</g>
	</g>
	<g>
		<g>
			<path class="st18" d="M581.6,454.7c0,0-0.3,0.2-0.8,0.5c-0.5,0.3-1.3,0.6-2.2,1c-1.9,0.8-4.6,1.6-7.7,2c-3.1,0.4-6,0.4-8,0.2
				c-1-0.1-1.8-0.2-2.4-0.4c-0.6-0.1-0.9-0.2-0.9-0.2c0-0.1,1.3,0.1,3.3,0.2c2,0.1,4.8,0.1,7.9-0.3c3.1-0.4,5.8-1.2,7.7-1.8
				C580.5,455.2,581.6,454.7,581.6,454.7z"/>
		</g>
	</g>
	<g>
		<g>
			<path class="st18" d="M577.9,438c0,0.1-1.3-0.2-3.3-0.4c-2-0.2-4.9-0.4-8-0.3c-3.1,0.1-5.9,0.5-8,0.9c-2,0.4-3.3,0.7-3.3,0.6
				c0,0,0.3-0.2,0.8-0.3c0.5-0.2,1.4-0.4,2.4-0.7c2-0.5,4.9-1,8-1.1c3.2-0.1,6,0.2,8.1,0.5c1,0.2,1.8,0.3,2.4,0.5
				C577.6,437.9,577.9,438,577.9,438z"/>
		</g>
	</g>
	<g>
		<g>
			<path class="st18" d="M586.3,484.8c0,0-0.4,0-1.2-0.2c-0.7-0.2-1.8-0.5-3.1-1c-2.6-0.9-6-2.5-9.5-4.9c-3.4-2.4-6.1-5.1-7.9-7.2
				c-0.9-1.1-1.5-1.9-2-2.6c-0.4-0.6-0.6-1-0.6-1c0.1-0.1,1,1.3,2.8,3.4c1.8,2,4.5,4.7,7.9,7.1c3.4,2.4,6.8,4,9.3,5
				C584.7,484.3,586.3,484.7,586.3,484.8z"/>
		</g>
	</g>
	<g>
		<g>
			<path class="st18" d="M549.5,484.3c-0.1,0-0.2-1.1-0.1-2.8c0.1-1.8,0.3-4.2,1-6.8c0.7-2.6,1.6-4.9,2.5-6.4
				c0.8-1.6,1.5-2.5,1.5-2.4c0.1,0-0.4,1-1.2,2.6c-0.7,1.6-1.6,3.8-2.3,6.4c-0.7,2.6-1,5-1.1,6.7
				C549.6,483.2,549.5,484.3,549.5,484.3z"/>
		</g>
	</g>
	<g>
		<g>
			<path class="st18" d="M524.7,473c-0.1,0-0.1-0.9,0-2.4c0.2-1.5,0.6-3.5,1.8-5.5c1.2-2,2.7-3.4,3.9-4.3c1.1-0.9,1.9-1.4,1.9-1.4
				c0,0.1-0.6,0.7-1.7,1.7c-1,1-2.5,2.4-3.7,4.3c-1.1,1.9-1.6,3.9-1.9,5.3C524.9,472.1,524.8,473,524.7,473z"/>
		</g>
	</g>
	<g>
		<g>
			<path class="st18" d="M606.7,484c0,0.1-1.1,0.6-2.9,1.3c-1.8,0.7-4.4,1.5-7.3,2.2c-2.9,0.6-5.6,0.9-7.6,0.8c-0.5,0-0.9,0-1.3-0.1
				c-0.4,0-0.7-0.1-1-0.1c-0.5-0.1-0.8-0.2-0.8-0.2c0-0.1,1.2,0.1,3.1,0.1c1.9,0,4.6-0.3,7.5-1c2.9-0.6,5.4-1.4,7.3-2
				C605.5,484.3,606.6,483.9,606.7,484z"/>
		</g>
	</g>
	<g>
		<g>
			<path class="st18" d="M595.7,464.2c0.1,0-0.3,0.6-1.1,1.2c-0.8,0.6-2.1,1.3-3.5,1.9c-1.5,0.6-2.8,0.9-3.8,1.1
				c-0.5,0.1-0.9,0.1-1.2,0.1c-0.3,0-0.5-0.1-0.4-0.1c0,0,0.6-0.1,1.6-0.4c1-0.3,2.3-0.7,3.7-1.3c1.4-0.5,2.7-1.2,3.5-1.7
				C595.2,464.7,595.6,464.2,595.7,464.2z"/>
		</g>
	</g>
	<g>
		<g>
			<path class="st18" d="M588.8,444.2c0,0,0,0.2-0.2,0.4c-0.2,0.2-0.4,0.4-0.8,0.7c-0.7,0.5-1.8,1-3,1.4c-1.2,0.4-2.4,0.7-3.2,0.9
				c-0.8,0.1-1.4,0-1.4,0c0-0.1,0.5-0.1,1.3-0.3c0.8-0.2,1.9-0.6,3.1-1c1.2-0.4,2.3-0.9,3-1.2c0.4-0.2,0.7-0.3,0.8-0.5
				C588.7,444.3,588.8,444.2,588.8,444.2z"/>
		</g>
	</g>
	<g>
		<g>
			<path class="st18" d="M553.1,433.6c0,0.1-0.9,0.1-2.4,0.1c-1.5-0.1-3.5-0.3-5.6-0.8c-2.2-0.5-4.1-1.2-5.4-1.8
				c-1.3-0.6-2.1-1.1-2.1-1.1c0.1-0.2,3.3,1.5,7.6,2.5C549.6,433.4,553.1,433.4,553.1,433.6z"/>
		</g>
	</g>
	<g>
		<g>
			<path class="st18" d="M581.9,424.5c0.1,0.1-1.3,1.1-3.3,1.9c-1.9,0.8-3.6,1.1-3.7,0.9c0-0.1,1.6-0.6,3.5-1.4
				C580.4,425.2,581.9,424.4,581.9,424.5z"/>
		</g>
	</g>
	<g>
		<g>
			<path class="st18" d="M559.5,411.5c0,0,0.6,0.3,1.4,1.1c0.8,0.8,1.7,2,2.4,3.5c0.7,1.5,1,3.1,1.1,4.1c0.1,1.1,0,1.8-0.1,1.8
				c-0.2,0-0.1-2.7-1.5-5.7C561.5,413.4,559.4,411.6,559.5,411.5z"/>
		</g>
	</g>
	<g>
		<g>
			<path class="st18" d="M528,425.7c0,0-0.2-0.3-0.5-0.9c-0.3-0.6-0.6-1.6-0.8-2.7c-0.5-2.4-0.6-5.8,0.1-9.4c0.7-3.6,1.8-6.8,2.7-9
				c0.4-1.1,0.8-2,1.1-2.6c0.3-0.6,0.4-0.9,0.5-0.9c0,0-0.1,0.4-0.3,1c-0.3,0.7-0.6,1.6-0.9,2.7c-0.8,2.3-1.9,5.4-2.6,9
				c-0.7,3.6-0.6,6.9-0.2,9.2C527.5,424.3,528.1,425.7,528,425.7z"/>
		</g>
	</g>
	<g>
		<g>
			<path class="st18" d="M504.5,416.1c0,0,0-0.4,0.2-1c0.1-0.6,0.4-1.6,0.8-2.7c0.8-2.2,2.1-5.2,4.2-8.2c2.1-3,4.4-5.3,6.2-6.8
				c0.9-0.7,1.7-1.3,2.2-1.7c0.6-0.4,0.9-0.5,0.9-0.5c0.1,0.1-1.1,0.9-2.9,2.5c-1.7,1.5-4,3.9-6,6.8c-2,2.9-3.4,5.8-4.3,8
				C504.9,414.7,504.6,416.1,504.5,416.1z"/>
		</g>
	</g>
	<g>
		<g>
			<path class="st18" d="M508.3,381c0,0.1-1.1,0.1-2.9,0.6c-1.8,0.5-4.1,1.5-6.5,2.9c-2.4,1.5-4.4,3.1-5.6,4.4c-1.3,1.3-2,2.2-2,2.2
				c0,0,0.1-0.3,0.4-0.7c0.1-0.2,0.3-0.5,0.6-0.8c0.2-0.3,0.5-0.6,0.8-1c1.2-1.4,3.2-3.1,5.6-4.5c2.4-1.5,4.9-2.4,6.7-2.8
				c0.5-0.1,0.9-0.2,1.2-0.2c0.4-0.1,0.7-0.1,0.9-0.1C508,380.9,508.3,381,508.3,381z"/>
		</g>
	</g>
	<g>
		<g>
			<path class="st18" d="M498.9,367.4c0,0.2-3.9-0.5-8.6,0.7c-4.7,1.1-7.8,3.7-7.9,3.5c0,0,0.7-0.7,2-1.6c1.3-0.9,3.4-1.8,5.7-2.4
				c2.4-0.6,4.6-0.7,6.2-0.6C498,367,499,367.3,498.9,367.4z"/>
		</g>
	</g>
</g>
<g>
	<g>
		<path class="st4" d="M553.7,433.5c0,0,0.1,0.2,0.2,0.7c0.1,0.5,0.3,1.1,0.5,1.9c0.4,1.7,1,4.1,1.8,7.1c1.5,6.1,3.5,14.7,5.9,24.4
			l0.1,0.4l-0.4-0.1c-3.3-0.9-6.9-1.9-10.5-2.9c-11.9-3.4-22.7-6.4-30.6-8.7l0.2-0.1c-2.2,3.8-3.9,6.8-5.2,9c-0.6,1-1.1,1.8-1.4,2.4
			c-0.2,0.3-0.3,0.5-0.4,0.6c-0.1,0.1-0.1,0.2-0.1,0.2c0,0,0-0.1,0.1-0.2c0.1-0.2,0.2-0.4,0.3-0.7c0.3-0.6,0.8-1.4,1.4-2.5
			c1.2-2.2,2.9-5.3,5.1-9.1l0.1-0.1l0.1,0c8,2.2,18.8,5.2,30.7,8.6c3.6,1,7.2,2,10.5,3l-0.3,0.3c-2.3-9.8-4.3-18.3-5.7-24.5
			c-0.7-3-1.2-5.4-1.6-7.2c-0.2-0.8-0.3-1.4-0.4-1.9C553.7,433.8,553.7,433.6,553.7,433.5z"/>
	</g>
</g>
<g>
	<g>
		<path class="st4" d="M576.2,431.4c0,0,0.1,0.2,0.2,0.6c0.1,0.4,0.3,1,0.5,1.7c0.4,1.6,1,3.7,1.7,6.3c1.4,5.4,3.2,12.7,5.3,20.8
			c1,4.1,2,7.9,2.8,11.5c0.8,3.5,1.2,6.9,0.8,9.7c-0.4,2.8-1.4,4.9-2.3,6.1c-0.9,1.3-1.6,1.7-1.6,1.7c0,0,0.6-0.6,1.5-1.9
			c0.8-1.3,1.8-3.3,2.1-6c0.3-2.7,0-6-0.9-9.5c-0.9-3.5-1.8-7.4-2.9-11.5c-2-8.1-3.8-15.5-5.1-20.9c-0.6-2.6-1.1-4.8-1.5-6.3
			c-0.2-0.7-0.3-1.3-0.4-1.7C576.2,431.6,576.2,431.4,576.2,431.4z"/>
	</g>
</g>
<g class="st14">
	<g>
		<path d="M583.7,490.2c6,0.6,9.5-2.9,10.2-7.6c0.4-2.6-0.5-5.2-1.3-7.6c-3.7-10.8-7.4-21.7-13.3-31.5c2.2,9.8,5,19.3,7.2,29.1
			c0.7,3.2,1,5.1,0.9,8.4C587.3,484.2,585.8,487.8,583.7,490.2"/>
	</g>
</g>
<g>
	<g>
		<path class="st4" d="M561.5,401.7c3.3,1,6.9,0.5,9.8-1.2c2.9-1.7,5-4.8,5.7-8.1c1.6,1.5,4,2,6.2,1.6c2.2-0.4,4.2-1.6,5.8-3.1
			c3-2.8,5-6.8,4.9-10.9c-0.2-4.1-2.7-8.1-6.6-9.5c-3.9-1.4-8.7,0.4-10.3,4.2c-0.7-2.1,1.1-5,0.7-7.3c-0.9-4.4-3.5-7-5.8-7.1"/>
	</g>
	<g>
		<g>
			<g>
				<g>
					<path class="st4" d="M566.3,400.5c4.4-7.7,5.7-17.9,6.8-26.8c0.5-4.2,1.4-10.1-1.4-12.7c-3-2.8-3.3-7.1-6.8-9.2
						c-3.5-2.2-8.2-2.3-11.5,0.1"/>
				</g>
				<g>
					<g>
						<g>
							<g>
								<g>
									<g>
										<g>
											<g>
												<path class="st15" d="M543.5,415.8v-12c0,0-12.5-2.2-13.3-12.3c-0.7-10.1-0.5-33.3-0.5-33.3l0,0
													c11-5.8,24.1-4.9,34.3,2.2l-0.5,35.4l0,11.5l-10.3,8.3l-9.8,7.7V415.8z"/>
											</g>
										</g>
									</g>
								</g>
							</g>
						</g>
						<g>
							<path class="st4" d="M539.8,379.2c1.7-2.2,4.4-3,6.7-1.5c2.3,1.5,3.1,4.8,1.9,7.3c-0.9,1.7-2.8,3.3-4.8,3.7
								c0,0,4.5,8.2,7.4,10.4c3.4,2.6,5,3.9,9.3,4.4c4.2,0.5,3.7,0.5,6.1-3c1.8-2.6,2.3-5,2.3-8.2c0.1-7.4,0.3-14.8,0.4-22.2
								c0-2.7,0.1-5.4-0.5-8c-0.6-2.6-1.9-5.1-4.1-6.6c-2.4-1.6-5.4-1.7-8.1-2.6c-3.4-1.1-6.3-3.4-9.4-5.1c-3.2-1.7-7-2.6-10.2-1
								c-2.3,1.2-3.8,3.5-6,4.8c-3.1,1.9-7.4,1.5-9,6.2c-0.5,1.7-0.5,3.5,0.1,5.1c2.2,6.5,10,9.1,15.6,6.3c0.1,1.1-0.9,3.6,0.2,7
								C538,377.4,538.2,379.1,539.8,379.2"/>
						</g>
					</g>
					<g>
						<g>
							<path class="st16" d="M541.6,385.4c0,0,0,0.2,0.1,0.4c0.2,0.2,0.5,0.5,1.1,0.6c1.1,0.1,2.5-1.1,2.5-2.8
								c0-0.8-0.2-1.6-0.7-2.1c-0.5-0.5-1-0.8-1.5-0.9c-1-0.2-1.6,0.2-1.5,0.2c0,0.1,0.6,0,1.4,0.3c0.8,0.3,1.8,1.2,1.7,2.5
								c0,1.3-1,2.3-1.8,2.3C542,386,541.7,385.4,541.6,385.4z"/>
						</g>
					</g>
				</g>
			</g>
		</g>
		<g>
			<g>
				<path class="st11" d="M592.6,380.1c0,0-0.1,0.4-0.3,0.9c-0.2,0.6-0.7,1.4-1.3,2.3c-1.3,1.8-3.9,4-7.5,4.6
					c-3.5,0.5-6.7-0.8-8.5-2.2c-0.9-0.7-1.6-1.4-1.9-1.9c-0.4-0.5-0.6-0.8-0.5-0.8c0.1-0.1,0.9,1.1,2.7,2.4c1.8,1.3,4.8,2.5,8.2,2
					c3.4-0.5,5.9-2.6,7.3-4.3C592.1,381.5,592.5,380.1,592.6,380.1z"/>
			</g>
		</g>
		<g>
			<g>
				<path class="st11" d="M591.2,378.5c0,0-0.1,0.3-0.3,0.8c-0.3,0.5-0.7,1.1-1.4,1.9c-1.3,1.5-3.5,3.2-6.5,3.9
					c-3,0.7-5.8,0.1-7.5-0.7c-0.9-0.4-1.6-0.8-2-1.1c-0.4-0.3-0.7-0.5-0.6-0.6c0.1-0.1,1,0.7,2.8,1.3c1.8,0.7,4.4,1.2,7.3,0.5
					c2.8-0.6,5-2.3,6.3-3.6C590.6,379.5,591.1,378.5,591.2,378.5z"/>
			</g>
		</g>
		<g>
			<g>
				<path class="st11" d="M574.4,391.4c0,0-0.1,0.1-0.4,0.2c-0.3,0.1-0.7,0.3-1.3,0.3c-1.2,0.2-3-0.1-4.8-1.3
					c-1.8-1.2-3.3-3.3-4.5-5.9c-1.2-2.5-2.2-5.4-4.1-8c-0.9-1.3-2.1-2.3-3.4-2.9c-1.3-0.6-2.7-0.9-4.1-1.1c-2.7-0.3-5.3-0.1-7.4-0.4
					c-2.1-0.2-3.8-0.9-4.8-1.5c-0.5-0.3-0.9-0.6-1.1-0.8c-0.2-0.2-0.3-0.3-0.3-0.4c0,0,0.5,0.4,1.5,1c1,0.6,2.6,1.1,4.7,1.3
					c2.1,0.2,4.6,0,7.4,0.3c1.4,0.1,2.9,0.4,4.3,1.1c1.4,0.7,2.6,1.8,3.6,3.1c2,2.6,2.9,5.6,4.1,8.1c1.1,2.5,2.6,4.6,4.3,5.8
					c1.7,1.2,3.4,1.5,4.6,1.4C573.8,391.7,574.4,391.4,574.4,391.4z"/>
			</g>
		</g>
		<g>
			<g>
				<path class="st11" d="M573.4,387.8c0,0-0.2,0-0.4,0c-0.3,0-0.7,0-1.3-0.2c-1.1-0.3-2.6-1.1-3.9-2.6c-0.7-0.8-1.3-1.7-1.9-2.7
					c-0.6-1-1.1-2.2-1.7-3.3c-0.6-1.2-1.2-2.4-2-3.5c-0.4-0.6-0.9-1.1-1.4-1.6c-0.3-0.3-0.6-0.4-0.9-0.6c-0.3-0.2-0.6-0.4-0.9-0.6
					c-1.3-0.7-2.7-1-4.1-1.2c-1.4-0.2-2.8-0.2-4.1-0.2c-2.6,0-5,0.1-7-0.2c-2-0.2-3.6-0.8-4.5-1.4c-0.5-0.3-0.8-0.6-1.1-0.7
					c-0.2-0.2-0.4-0.3-0.3-0.3c0,0,0.5,0.3,1.5,0.8c1,0.5,2.5,1,4.5,1.2c2,0.2,4.3,0.1,7,0.1c1.3,0,2.7,0,4.1,0.2
					c1.4,0.2,2.9,0.5,4.3,1.3c0.4,0.1,0.7,0.4,1,0.6c0.3,0.2,0.6,0.4,0.9,0.7c0.6,0.5,1.1,1.1,1.5,1.7c0.9,1.2,1.5,2.4,2.1,3.6
					c0.6,1.2,1.1,2.3,1.6,3.3c0.5,1,1.1,1.9,1.8,2.7c1.2,1.5,2.6,2.4,3.7,2.7C572.8,387.8,573.4,387.8,573.4,387.8z"/>
			</g>
		</g>
		<g>
			<g>
				<path class="st5" d="M575.8,393c0,0-0.2-0.1-0.6-0.5c-0.3-0.3-0.8-0.8-1.2-1.5c-0.9-1.4-1.8-3.6-1.9-6.2
					c-0.1-2.6,0.7-4.8,1.4-6.3c0.4-0.7,0.8-1.3,1.1-1.6c0.3-0.4,0.5-0.5,0.5-0.5c0.1,0.1-0.6,0.8-1.3,2.3c-0.7,1.5-1.4,3.7-1.3,6.1
					c0.1,2.5,0.9,4.6,1.7,6C575.2,392.2,575.9,392.9,575.8,393z"/>
			</g>
		</g>
	</g>
</g>
<g>
	<path class="st8" d="M197.7,474.4V508h0.4c4.3,9,44.8,16,94.1,16c49.3,0,89.8-7,94.1-16h0.4v-33.6H197.7z"/>
	<path class="st9" d="M232.1,475.5V520c9.6,1.5,20.7,2.6,32.9,3.3v-47.8H232.1z"/>
	<path class="st9" d="M271.2,483.5v40.1c2.7,0.1,5.4,0.2,8.1,0.3v-40.4H271.2z"/>
	<path class="st10" d="M386.8,474.4c0,8.4-42.3,15.2-94.5,15.2c-52.2,0-94.5-6.8-94.5-15.2c0-8.4,42.3-15.2,94.5-15.2
		C344.4,459.3,386.8,466.1,386.8,474.4z"/>
	<path class="st8" d="M363.8,475.3c0,6.3-32.1,11.5-71.6,11.5c-39.5,0-71.6-5.1-71.6-11.5c0-6.3,32-11.5,71.6-11.5
		C331.8,463.9,363.8,469,363.8,475.3z"/>
	<path class="st9" d="M356.7,476.5c0,5.7-28.8,10.3-64.4,10.3c-35.6,0-64.4-4.6-64.4-10.3c0-5.7,28.8-10.3,64.4-10.3
		C327.8,466.2,356.7,470.8,356.7,476.5z"/>
</g>
<g>
	<g>
		<g>
			<polygon class="st0" points="775,171.1 765.5,171.1 765.3,115.9 774.7,115.9 			"/>
		</g>
	</g>
	<g>
		<g>
			<g>
				<polygon class="st3" points="708,146.5 683.5,146.6 683.3,116.2 707.8,116 				"/>
			</g>
		</g>
		<g>
			<g>
				<polygon class="st1" points="732.3,146.3 707.9,146.5 707.7,116 732.2,115.8 				"/>
			</g>
		</g>
		<g>
			<g>
				<g>
					<path class="st0" d="M683.4,124.6c16.3,0.2,32.6,0,48.9-0.3c0.3,0,0.3-0.6,0-0.6c-16.3-0.1-32.6,0-48.9,0.4
						C683.1,124.1,683.1,124.6,683.4,124.6L683.4,124.6z"/>
				</g>
			</g>
		</g>
	</g>
	<g>
		<g>
			<g>
				<polygon class="st3" points="712.7,170.8 668.2,171.1 668.1,146.3 712.6,146 				"/>
			</g>
		</g>
		<g>
			<g>
				<polygon class="st1" points="757,170.5 712.5,170.8 712.4,146 756.9,145.7 				"/>
			</g>
		</g>
		<g>
			<g>
				<g>
					<path class="st0" d="M668.1,153.2c29.6,0.4,59.2,0,88.8-0.5c0.3,0,0.3-0.6,0-0.6c-29.6-0.2-59.2-0.2-88.8,0.6
						C667.8,152.7,667.8,153.2,668.1,153.2L668.1,153.2z"/>
				</g>
			</g>
		</g>
	</g>
	<g>
		<g>
			<rect x="651.5" y="171.1" class="st0" width="172.4" height="8.9"/>
		</g>
		<g>
			<rect x="679.7" y="175.4" class="st0" width="7" height="30.4"/>
		</g>
		<g>
			<rect x="784.2" y="175.4" class="st0" width="7" height="30.4"/>
		</g>
	</g>
	<g>
		<g>
			<polygon class="st3" points="784.3,171.2 774.8,171.3 774.5,95.3 784,95.3 			"/>
		</g>
	</g>
	<g>
		<g>
			<g>
				<polygon class="st1" points="799,171 784.3,171 784,109.5 798.7,109.4 				"/>
			</g>
		</g>
		<g>
			<g>
				<path class="st0" d="M798.6,121.3c0,0.2-3.3,0.3-7.3,0.3c-4.1,0-7.3-0.1-7.3-0.3c0-0.2,3.3-0.3,7.3-0.3
					C795.3,121,798.6,121.1,798.6,121.3z"/>
			</g>
		</g>
		<g>
			<g>
				<path class="st0" d="M798.6,118.7c0,0.2-3.3,0.3-7.3,0.3c-4.1,0-7.3-0.1-7.3-0.3c0-0.2,3.3-0.3,7.3-0.3
					C795.3,118.4,798.6,118.5,798.6,118.7z"/>
			</g>
		</g>
		<g>
			<g>
				<path class="st0" d="M798.6,161.7c0,0.2-3.3,0.3-7.3,0.3c-4.1,0-7.3-0.1-7.3-0.3c0-0.2,3.3-0.3,7.3-0.3
					C795.3,161.4,798.6,161.5,798.6,161.7z"/>
			</g>
		</g>
		<g>
			<g>
				<path class="st0" d="M798.6,159.1c0,0.2-3.3,0.3-7.3,0.3c-4.1,0-7.3-0.1-7.3-0.3c0-0.2,3.3-0.3,7.3-0.3
					C795.3,158.8,798.6,158.9,798.6,159.1z"/>
			</g>
		</g>
		<g>
			<g>
				<path class="st0" d="M791.5,153.5c-0.1,0-0.3-6.2-0.3-13.9c0-7.7,0.1-13.9,0.3-13.9c0.1,0,0.3,6.2,0.3,13.9
					C791.8,147.3,791.7,153.5,791.5,153.5z"/>
			</g>
		</g>
	</g>
	<g>
		<g>
			<rect x="798.8" y="124.5" class="st3" width="16" height="46.5"/>
		</g>
		<g>
			<path class="st18" d="M807.2,158.9c-2.1,0-3.6-1.8-3.6-4.2c0-1.3,0.4-2.5,1.3-3.1l0.4,0.6c-0.7,0.6-1.1,1.5-1.1,2.5
				c0,1.9,1.2,3.4,3,3.4c1.8,0,3-1.4,3-3.4c0-1-0.3-1.9-1.1-2.5l0.4-0.6c0.8,0.7,1.3,1.8,1.3,3.1
				C810.8,157.2,809.3,158.9,807.2,158.9z"/>
			<path class="st18" d="M809.9,150.5l-0.5-0.4c0.5-0.6,0.8-1.8,0.8-3c0-1.7-0.5-2.4-1.3-2.4c-2.1,0-0.5,5.5-3.3,5.5
				c-1.1,0-1.9-1-1.9-3.1c0-1,0.3-2.2,0.7-2.8l0.5,0.4c-0.4,0.7-0.6,1.6-0.6,2.5c0,1.6,0.6,2.3,1.3,2.3c2.1,0,0.6-5.5,3.3-5.5
				c1.1,0,1.9,1.2,1.9,3.3C810.8,148.5,810.4,149.8,809.9,150.5z"/>
			<path class="st18" d="M809.9,142.9l-0.5-0.4c0.5-0.6,0.8-1.8,0.8-3c0-1.7-0.5-2.4-1.3-2.4c-2.1,0-0.5,5.5-3.3,5.5
				c-1.1,0-1.9-1-1.9-3.1c0-1,0.3-2.2,0.7-2.8l0.5,0.4c-0.4,0.7-0.6,1.6-0.6,2.5c0,1.6,0.6,2.3,1.3,2.3c2.1,0,0.6-5.5,3.3-5.5
				c1.1,0,1.9,1.2,1.9,3.3C810.8,140.9,810.4,142.2,809.9,142.9z"/>
		</g>
	</g>
	<g>
		<path class="st0" d="M781.8,108.2c0,1.8-1.2,3.2-2.7,3.2c-1.5,0-2.7-1.4-2.7-3.2s1.2-3.2,2.7-3.2
			C780.6,105,781.8,106.5,781.8,108.2z"/>
	</g>
	<g>
		<rect x="778.2" y="117" class="st0" width="1.7" height="45.2"/>
	</g>
</g>
</svg>
